<svg id="Layer_1" data-name="Layer 1" xmlns="http://www.w3.org/2000/svg" viewBox="0 0 200 200"><defs><style>.cls-1{fill:#00a7e1;}</style></defs><title>Artboard 1</title><path class="cls-1" d="M174.76,74.07a10.38,10.38,0,1,0,10.41,10.38A10.38,10.38,0,0,0,174.76,74.07Zm-149.55,0A10.38,10.38,0,1,0,35.62,84.45,10.38,10.38,0,0,0,25.21,74.07ZM143.82,55.14A15.49,15.49,0,1,0,159.3,70.63a15.49,15.49,0,0,0-15.49-15.49Zm48,94.16H174.22V116.81A30.19,30.19,0,0,0,170,101.54a16.84,16.84,0,0,1,21.92,16.33ZM56.15,55.17A15.49,15.49,0,1,0,71.61,70.69v0A15.49,15.49,0,0,0,56.15,55.17ZM25.24,100.78a16.91,16.91,0,0,1,4.8.78,30,30,0,0,0-4.26,15.27V149.3H8.12V117.9a17.12,17.12,0,0,1,17.12-17.12ZM100,24.23a22.88,22.88,0,1,0,22.88,22.88h0A22.91,22.91,0,0,0,100,24.23Zm68.56,137.14H141.37v-49.3a40.84,40.84,0,0,0-4.68-18.78,24.51,24.51,0,0,1,7-1.12,24.78,24.78,0,0,1,24.75,24.75ZM58.42,112.08v49.3h-27V116.81A24.75,24.75,0,0,1,56.18,92.06h0a24.15,24.15,0,0,1,6.94,1.12A41,41,0,0,0,58.42,112.08Zm5.68,63.7h71.85v-63.7a35.92,35.92,0,1,0-71.85,0Z"/></svg>