<?xml version="1.0" encoding="utf-8"?>
<!-- Generator: Adobe Illustrator 21.1.0, SVG Export Plug-In . SVG Version: 6.00 Build 0)  -->
<svg version="1.1" id="Layer_1" xmlns="http://www.w3.org/2000/svg" xmlns:xlink="http://www.w3.org/1999/xlink" x="0px" y="0px"
	 viewBox="0 0 299 299" style="enable-background:new 0 0 299 299;" xml:space="preserve">
<style type="text/css">
	.st0{fill:#FFFFFF;}
</style>
<path class="st0" d="M94.9,87l-12-12l6.9-29.5c0.4-1.9-0.1-3.8-1.5-5.1L54.1,6.1c-2.1-2.1-5.6-2.1-7.8,0c-0.7,0.7-1.2,1.6-1.5,2.6
	l-6.9,29.3L8.6,44.9c-3,0.7-4.8,3.7-4.1,6.6c0.2,1,0.7,1.9,1.5,2.6l34.3,34.3c1.3,1.3,3.3,1.9,5.1,1.5l29.9-7l11.8,11.8
	C42.7,143.5,46.2,219,94.9,263.4c48.7,44.4,124.2,40.9,168.6-7.8c44.4-48.7,40.9-124.2-7.8-168.6C210.2,45.4,140.5,45.4,94.9,87
	L94.9,87z M78.4,46l-4.7,19.9L48.6,40.7l4.6-19.9L78.4,46z M45.9,78.6L20.7,53.4l19.9-4.7l25.2,25.2L45.9,78.6z M251.9,98.6
	c42.4,42.3,42.5,110.9,0.2,153.2S141.3,294.3,98.9,252C58,211.2,56.3,145.5,95,102.7l15.9,15.9c-31.3,35.6-27.8,89.9,7.8,121.2
	s89.9,27.8,121.2-7.8s27.8-89.9-7.8-121.2c-32.4-28.5-81-28.5-113.4,0l-15.9-15.9C145.6,56.3,211.1,57.9,251.9,98.6z M134.6,142.2
	c-18.2,22.5-14.7,55.5,7.8,73.7c22.5,18.2,55.5,14.7,73.7-7.8s14.7-55.5-7.8-73.7c-19.2-15.5-46.7-15.5-65.9,0l-15.9-15.9
	c31.3-27,78.6-23.5,105.6,7.8s23.5,78.6-7.8,105.6s-78.6,23.5-105.6-7.8c-24.2-28.1-24.2-69.7,0-97.8L134.6,142.2z M158.7,166.4
	c-4.9,9.2-1.4,20.7,7.8,25.6c9.2,4.9,20.7,1.4,25.6-7.8c4.9-9.2,1.4-20.7-7.8-25.6c-5.6-3-12.2-3-17.8,0l-16.3-16.3
	c18.2-13.9,44.1-10.4,58,7.8s10.4,44.1-7.8,58s-44.1,10.4-58-7.8c-11.3-14.8-11.3-35.4,0-50.2L158.7,166.4z M179.2,171.3l-4-4
	c4.4-0.1,7.9,3.4,8,7.8c0.1,4.4-3.4,7.9-7.8,8c-4.4,0.1-7.9-3.4-8-7.8c0-0.1,0-0.2,0-0.2l4,4c2.1,2.1,5.6,2.1,7.8,0
	S181.3,173.4,179.2,171.3L179.2,171.3z"/>
</svg>
