<?xml version="1.0" encoding="utf-8"?>
<!-- Generator: Adobe Illustrator 21.1.0, SVG Export Plug-In . SVG Version: 6.00 Build 0)  -->
<svg version="1.1" id="Layer_1" xmlns="http://www.w3.org/2000/svg" xmlns:xlink="http://www.w3.org/1999/xlink" x="0px" y="0px"
	 viewBox="0 0 2500 779" style="enable-background:new 0 0 2500 779;" xml:space="preserve">
<style type="text/css">
	.st0{fill:#1A3B73;}
	.st1{fill:#FFFFFF;}
	.st2{fill:#DB812E;}
</style>
<path class="st0" d="M15.5,236c18.8,0,31.9,4,40,12.1c9.1,9.1,13.2,24.1,13.2,48.7v307.1c0,42.5-8.9,61.5-61.5,61.5H0v18.8h236.3
	v-18.8l-7.1-0.1c-52.1-0.6-60.9-19.5-60.9-61.5V296.8c0-24.5,4.1-39.5,13.2-48.6c8.2-8.3,21.5-12.2,40.7-12.2h14.1v-19.1H0V236
	L15.5,236L15.5,236z M771.2,527.5c0,0-4.1-19.2-4.7-29.9V357.3c-0.9-81.8,10.2-122.5-61.3-122.2v-18.4h164.5v18.4
	c-73.7-0.3-64.4,40.4-64.8,122.2v327.5l-23.4-0.2L426.3,312.8c0,0,4,19.2,4.6,29.9v229.7c-2,83.8,8.4,93.9,62.3,92.9v19.1H321.7
	v-19.1c54.1,0.1,64.7-7.1,64.6-99.8v5.5V344.8l-0.4-35.9c2-46.5-15.2-73.5-67.6-73v-18.4h157.9L771.2,527.5z M1366.8,207.8h-18.1
	l-0.9,6.2c-1.2,9.3-4.9,24.8-15.4,24.8c-3,0-10.5-1.4-19-5.3c-36.7-15.9-84.3-25.7-124.4-25.7c-78,0-148.7,27.9-199.2,78.7
	c-46.4,46.6-71.8,110.1-71.4,178.6c0.3,65.7,26.1,119.7,79,165.3c53.2,45.6,112.9,65,199.6,65c72.2,0,113.6-10.4,177-44.4l11.1-6
	V522.4c0-52.2,6.4-60.4,48.9-62.1l6.9-0.3v-18.2h-207.6V460l6.9,0.3c47.3,1.8,56.3,10.3,56.3,53.5v113.6c-35.1,23.2-60.6,32-92.8,32
	c-47.6,0-90-18.4-122.6-50.9c-38.1-38.1-56.7-93.7-56.7-156.5c0-67.6,18-125.3,55.1-162.4c29.5-29.5,68.8-45.9,113.5-45.9
	c40,0,86.4,17.1,118.2,42.4c25.9,21.2,39.4,41.7,49.5,75.6l1.5,5.1h17.7L1366.8,207.8L1366.8,207.8z"/>
<path class="st1" d="M2276.1,682.9c11.5-1.7,23.8-1.5,33-9.9c39,6,78.6-3.7,109.2-25.1c16.1-12.9,30.4-27.9,42.5-44.7
	c10.4-14.6,18.6-28.1,23.8-44.4c4-10.1,7.1-20.6,9.4-31.2c11.1-50.6,5.3-107.2-11.2-155.3c-3-8.8-6.4-17.4-10.2-25.9
	c-20.6-42.5-48.6-88.4-91.7-115.2c-24.3-15.1-46.6-38.6-60.3-62.8c-7.4-6.7-14.6-15.6-24.2-17.2c2.6,4.4,5.5,8.6,6.2,13.7l-0.5,0.7
	c-10.3,0.3-18.3-5.1-25.3-11.7l7.7-7c-2.9-1.5-6.3-2-9.5-2.8c-29.5-3.4-53.7,10.2-79.8,16.8l-0.4,1.5c16.1,7.1,19.4,24.9,28.8,36.8
	c2.3-2.8,6.2-0.7,9.5-1c4.7,0.2,9,3.6,13.6,2.4c0.1-3.9-2.1-7-2.8-10.5c2.8-1.3,6.1-0.2,9.2,0c8.4,4.9,22-0.9,27.3,10.5
	c-9.7,0.6-18.7,2.6-27.8,4.8c0.6,3.7,4.2,6.6,3.9,10.2c-7.8-3.2-16.1-5.3-24.5-6.3l-0.4,1.3c10.9,12.9,26,20.5,41.3,25
	c22.1,5.1,41.5-5.4,62.8-1.7c52.3,23.9,97,78.7,116.4,130.7c1,2.5,1.9,5,2.7,7.6c16.3,47.5,19.3,105.8,3.1,155.3
	c-8.7,20.6-18.2,40-33.5,56.8c-5.6,7-12.1,13.3-19.1,18.8c-21.9,17.1-48.9,24.6-76.8,16.9c-1.8-1.2-5.3-1.5-4.7-4.5
	c1-4.1,1.9-8.2,2.7-12.4c4.8-24.2,6.6-49,5.5-73.7l-0.1-3.2c-1.5-36.2-8.8-68.8-22.1-100.2c-8.5-18-18.7-37.6-31.5-55.2
	c-15.2-21-34.2-39.1-58.5-48.2c-14.9-3.9-33.3-4.7-44.5,7.7c-8,7-11.4,16.5-10.2,26.9c-12.6,8-26.7,12.3-42,13.6
	c-3.8,0.3-7.6,1.7-11.5,1.7c-3.6,0.2-7.3,0-10.9-0.4c-18.5-2.3-37.2-12.2-51.4-23.7c-0.3-7.6-0.7-14.7-1-22.8
	c-8.2-4.2-14.9-12.3-15.4-21.8l0.7-0.7c4.7,1.5,8.8,3.8,13,6.3c-1.9-11.4-4.1-22.6-9.8-32.5c-5.3-2.2-10.5-3.9-15.5-6.6
	c-5.7-3.8-9.4-10.7-10.2-16.9c5.1,5,14,3.2,17.9,8.5c-6.9-20.3-7-43.5-18.3-62.1c-5.7-13.7-20.6-20-30.8-30
	c-3.9-4.8-5.5-11.6-12.7-12.3c-5.8-1.5-6.3-8-7.3-12.3c3.7,0.5,6.7,2.9,9.8,3.5c-8.5-22.5-15.9-47.5-38.8-61.8l-3.9,2.5
	c-8.9,1.3-18.4,1.9-27.3,2.2c3.9-5.8,10.9-8.3,16.5-11c-6.4-4.8-11.7-6-19.8-7.3c-4.7,4.7-13.1,7-19.1,8.3l-0.7-0.6
	c-0.2-5.2-1.3-11.7,6.6-13c-7.6-3.7-20.2-2.2-27.9,0c-2.2,5.7-8.4,10.8-8,17.5c-4.5,4.7-7.7,11-12.4,14.3
	c-0.2-11.2,4.6-21.6,6.7-31.1c-6.6,2.5-13.2,6-19.7,9c-10.4-6-21.3-12-32.4-16.5c-1-0.5-3.2-0.9-2.8,1c9.5,6.8,5.8,19.7,6.8,29.5
	l-6-4.9c-2.9-7.5-11.3-12.9-12.8-21c-10,1.9-16.3,4.5-25.5,8.5l-1.3,0.7c6.8,0,12.7,5.4,16.1,10.8c-10.4,0.6-19.6-3.5-29.8-4.6
	c-1-1-1.9-2.2-3.5-2c-5.1,1.9-9.5,5.6-14,9c-10.1,10-20.3,20.9-25.1,34c3.4,0.6,7.6,0.4,10.1,2.5c-5.5,3.4-10.4,9-15.8,12.3
	c-1.9,7.6-1.6,16.2-2,24.5c-4.3,6.4-9.9,12.1-12.7,19.3c-9,29.3-11.4,61.9-10.1,95.2c-2.9,2.8-6.7,4.6-9.5,6.7l0.3,29.8h0.7
	c1.3-6.3,8.8-9.8,13.3-14h1.5c-0.7,6.7-1.6,13.4-1.7,20.3l-8.5,7c-8.5,7.5-1.3,18.7-2,28.1c0.6,2.4,1,6.1,2.7,6.7
	c1.1-3.7,4.3-6.3,6.3-9.5c3.7-0.9,6.8-3.8,10.2-4.2c-1.9,7.3-4.4,14.5-7.3,21.5c-1.6,1-3.1,2.3-4.4,3.6c-1.5,1.5-2.5,3.4-3,5.4
	c6.6,34.6,16.9,68.7,28.7,101.3c-8,13.6-12.6,29.6-19.3,43.6c-1,2-1.8,4-2.6,6c-6.7,17-8.8,36-17.1,52.3c-3.4-2.3-7-4.2-10.8-5.7
	c-15.8-5.3-34-1.9-45.6,10.2c-10.2-1.9-20.7-0.1-28.8,5.3c-5.8,4.3-10.2,9.5-12.8,15.6c-1.8,4.4-2.6,9.2-2.3,13.9
	c-6.6,4.5-10.1,11.5-12.2,18.5c-3.1,15.8,2.5,32.2,11.5,44.3L2276.1,682.9L2276.1,682.9L2276.1,682.9z"/>
<path class="st1" d="M2179.5,354.6c-0.1,3.8-2.9,8.1-0.4,11.2c3.5-3.9,9.4-3.8,14-5.6c12.9-1.2,25.4,2.9,37.5,5.9
	c-3.1-4.8-5.1-10.2-8.5-14.6c-6.7-1.7-16.9,2.9-18.1-7c-4.1-3.5-10.5-1-14.7-0.7C2185.3,346.7,2181.9,350.3,2179.5,354.6
	L2179.5,354.6z M1733.3,228.6l-0.2-0.1l0,0.1H1733.3z M1786.3,358.4l8.8-8.5c0.7,0,1.3,0.2,1.7,0.7l-0.7,16.2c4.2,4,9.5,5.3,15,5.6
	c0.5-4.4,3.8-7.5,5.7-11.2c1.6-3.1,0.6-7.6,3.8-9.8l1,1c1.1,4.8,0.8,10.2,3.3,14.4c0.3,2.3,0.7,5.3,1,7.3c6.4,0.3,12.2-1.5,17.2-3.8
	c-0.3-5.6,1.6-10.1,2.5-15.2c1.3-1.8-1.6-5,2.1-4.8c2,4.4,5.7,8.9,7.7,13.6c8.5-8.6,12-19.8,14-31.5c-2.5-3.4-6.2-3.4-9.2-5.6
	c-24.8-8.1-56.6-9.7-80.6,2.8C1778,339.5,1780.1,350.5,1786.3,358.4L1786.3,358.4z M1554.3,632.3c-0.9,11.3,0,21.8,0.7,32.9
	c2.3,3.7,6.6,7.9,10.8,8.2l0.8-7.5c1.7-10.4-3.8-21.4,2-30.2c4.1,1.3,8.2,3.4,11.7,5.3c1.7-9.6-0.8-20.9-10-26.7L1554.3,632.3
	L1554.3,632.3z M1590.4,616.6c-5.7,17.1-9.9,38.2-3.1,56.1c3.9-2.6,8-5.1,11.5-8.8c-0.7-13.7-2.6-28.4,5.5-39.8
	c7.2,2.2,12,9.1,14.7,15.8c4.9-6.1,6.5-14.6,4.5-22.8c0.3-6.4-7-4.9-10.5-7.6c1.2-5.4,1-11.7,6.7-14.7l-17.6,1.8
	C1597.8,603,1592.9,609.3,1590.4,616.6z M1626.4,667c0.7,1.3,0,3.7,1.5,3.9c2.2-12.2,12.1-20.2,17.5-31c2.6-3.6,2.5-8.8,6.7-11.5
	c5.7,0,9.8,4.1,15.4,4.5c1.7,1.3-0.9,2.5-1,3.9c-1.2,10-5,18.2-4.2,28.4h1c7.7-8.1,13-17,18.7-26.4l1-8.3
	c1.3-9.9-9.5-16.4-16.5-20.4l6.3-8l-8.8-3.1c-10.2,1-19.4,5.3-26.6,13.3C1628.5,628.7,1627,647.1,1626.4,667L1626.4,667z
	 M1665.7,580.3c3.3,1,6.4-1.7,9.8-0.3c13.4,4.9,27.5,10.1,37.5,21.3l12,30.5l6-18.8l-4-10.2c-3.3-7.3-12.5-6.7-18.8-7
	c-2.6-2.9,0.2-6.3,1-9c3.1-10.4-9.6-9.8-14.7-14c0.3-6.3-7.3-4.1-11.5-4.7l-1.4-1.7c-0.9-1.3-3.1-1.3-4.3-0.3
	c-0.3-0.4-0.9-0.7-0.5-1.5l-3.2,0.7C1668.9,569.3,1665.9,574.4,1665.7,580.3L1665.7,580.3z M1674.2,546.8c0.5,1.9,1.5,3.7,3,4.9
	c6.6-1.7,12.9-6.2,20.5-3.5c9.8,8.6,20,17.7,31.9,22.4l4.2-0.7c2.6,0.9,5.5,1,7.3,3.9c1.6,3.9-2.5,6.3-3.8,9.5
	c6.6,4.8,3.9,13.4,8.1,19.3l10.5-14c-2.4-6.1,0.2-16.6-9.5-17.2c-3.3-1.6-5.3-4.9-5.3-8.5c-6.2-5.7-14-8.1-20.3-14
	c-5.1-4.1-8.2-10.4-14.7-11.8c-4.5-2.5-9.5-3.8-14.7-4.9C1681.5,530.6,1680.6,542.2,1674.2,546.8L1674.2,546.8z M1688.2,518l1.7,2.8
	c7.3-0.4,13.9-3.6,21.1-3.5c4.8,2.9,11.1,2.8,16,5.3c4,5.4,8.2,11.5,14,15.2c11.9,1.7,18.4,14.5,22.5,23.8V557
	c1.8-6.3-0.1-13.6-2.5-19.3c-2.9-2.9-7.2-4.9-10.2-7.5c-0.6-1.9-0.2-2.8,0.4-4.5c-4.5-4.8-11.2-7.5-16.8-11.2
	c-7.7-11.3-22.6-8.2-34.5-11.3L1688.2,518L1688.2,518z M1687.9,410.9c1.3,4.5,2.9,10.2,3.7,15.1c4.1-9.1,12.2-13.1,19.3-20.6
	c-4.1-2.8-9.2-4.1-13.7-5v-0.3C1694.1,403.3,1689.1,406.5,1687.9,410.9z M1714.5,458.9l6.6-6.7c6.6-6.7,12-14.5,13-23.1
	c-4.7-2.8-10.8-0.9-15.3,0.7C1717.1,439.4,1714.6,448.7,1714.5,458.9L1714.5,458.9z M1719.3,479.5c10.1,0.6,19.9,2.6,28.1-3
	l8.1-26.3c-2.6-0.2-5.2-1.3-7.7-0.4C1742.4,461.7,1731.5,473.6,1719.3,479.5L1719.3,479.5z M1722.3,386.4
	c6.6,9.6,17.5,20.5,28.8,23.5c-1.3-12.3-11.8-20.7-17.2-31.2l-0.3-3.5c-4.2-4.1-9.4-6.8-13.7-9.1
	C1719,373.1,1720.9,379.8,1722.3,386.4L1722.3,386.4z M1757.8,480.7c7.8,1.3,16.1,0,23.2-2.2c10.4-2.4,16.1-13.9,19.6-22.7h-13
	l-14,13.7C1768.1,472.4,1762.8,476.8,1757.8,480.7L1757.8,480.7z M1756.3,373.1c2.2,11.4,7,21.7,13.6,31.5l1.7-21.7L1756.3,373.1z
	 M1804.1,429.9c0.9-7.3-2.2-15.8-3-23.2c-4.4-2.9-10.5-2.7-15-5.5C1786.3,412.7,1795.4,422.4,1804.1,429.9z M1790.8,504.1
	c9.2-2.9,18.1-6.1,26.6-10.8c5.4-7.7,13.6-14.8,14.7-23.8c-6.7,1.9-12.6-0.3-18.8,2.8c-3.8,6.8-6.2,14.6-13.5,19.6
	C1798.7,496.8,1793.3,500.1,1790.8,504.1z M1805.1,522l10.9,14.3c5.9,1.9,13.2,1.3,18.3-2l-4-13
	C1822.7,524.2,1813.5,523.3,1805.1,522z M1823.4,418.6l4.2,19.3c10.2-8.3,12.3-20.5,12-33.3C1833.8,411.3,1830.4,415.4,1823.4,418.6
	z M1852.1,452.7c0.2,2.8,0.9,5.4,2.5,7.6c11.4,4.1,12.6,18,23.1,23.2c6.8,3.1,14.7-0.7,20.7-3.5c-4.5-5.1-9.7-8.6-14-14
	c-3.1-1.3-6.2-3.2-6-7L1852.1,452.7L1852.1,452.7z M1861.2,521.6c5,5.7,11.7,8.6,18.7,10.2c-1.2-1.6,0.7,0,1-1l-8.8-19.3
	c-4.4,0.1-8.9,1-13,0.7C1859.4,515.4,1860.2,518.7,1861.2,521.6L1861.2,521.6z M1876.7,431.6c-4.1-9.5-5.8-21-7-31.5
	c-4.4,5.3-8.9,8.6-13,14C1854.8,424.9,1870.2,427.6,1876.7,431.6L1876.7,431.6z M1894.5,421.7c5.3,6.8,16.8,4.5,23.2,2.5
	c-3.1-5.3-13-8.3-14.7-14c-1-9.9-3.1-19.6-6.3-29C1891.6,393.5,1885.4,408.3,1894.5,421.7L1894.5,421.7z M1903.7,452.7
	c14.6,10.7,28.9,23.1,49.4,18.6c1.5-1,3.9-0.9,4.2-2.8c-6-3.8-12.4-6.7-18.6-10.2l-7-10.2h-3.2
	C1920.6,450.6,1912.2,451.6,1903.7,452.7L1903.7,452.7z M1904,571.1h1c8.8-7,19.1-9.3,29.5-12.3c2.8,1,1,4.1,3.5,5.3
	c6.3-2.7,13.9-2.1,20.3-4.2c7.7,0.3,14,0.4,20.3,3.8c5,6.6,14.3,5.9,20.8,10.2l-1-10.2c-13.6-15.9-34.7-17.1-54.3-16.8l-0.5-2.1
	c-4.7,0-9.9,1-14.3,3.1c-6.3,0.3-12.2,3.4-18.3,5.3C1908.2,558.7,1906,565.4,1904,571.1L1904,571.1z M1915.7,391.6
	c5.7,7.5,14.1,13.1,23.8,11.2c-5-4.8-10.7-9.9-11-16.8c1.5-13-12.8-14-19.8-20.7C1911,374.1,1910.8,383.9,1915.7,391.6z
	 M1914.2,596.9h1.7c7.8-4.9,19-1.2,26.6-6.3c4.2-2.2,4.5,3.6,7.4,5.2c7.2,4.4,8,17.5,18.1,14.5c12.1,6.3,9,21,9.5,31.8l11.2-7
	c-1-5.7,2.2-12.6-1.5-17.5c-2.8-6.3-10.4-6.8-14-12c4.4-7.5-5.5-11-7.6-16.4l0.6-0.7l15.4,2c5.3,3.2,7.2,9,8.8,14.4
	c12.1,2,15,15.8,19.3,24.5c2.5-6,3.5-12.4,6-18.3c0.1-4.8-6.3-4.8-9.5-7c-0.9-7.5-4.3-14.5-10.8-19c-13.4-3.4-25.3-10.8-40-10.8
	l-12.3,3.8c-6.7,1.6-13.9-0.4-19,4.2C1916.7,583.2,1916.1,591.5,1914.2,596.9L1914.2,596.9z M1921.9,536.8l2.8,1.3
	c6-2.8,12-6,18.3-8.3c9.8-2.8,17.3,8.3,25.5,1.3c3.1-2.2,5.7,1,8,2.8c3.5,6.4,11.7,6,17.8,7.7c-3-8.3-6.8-19.7-17.5-21
	c-4.2-1.9-9.2-1.7-13.3-4.2c-11.2-12.4-18.5,10.2-30.8,4.7C1928.4,525.8,1923,530.3,1921.9,536.8L1921.9,536.8z"/>
<path class="st1" d="M1924.7,607.9c4.7,3.9,9.5,10.7,16.8,9.8c9.1,4.2,5.3,16.2,10.2,22.5l5.2-4.7l-0.4-0.3l0.7-0.7l0.3,0.4
	c1.4-4.4-0.6-12.1-3.1-17.2c-3.4-2.3-7.3,0.2-10.5-2c-0.5-4.7-3.4-7-6.7-9.9c-2.3-1.8-5.4,0.6-8.1,0.4L1924.7,607.9L1924.7,607.9z
	 M1943,429.9c4.8,8.1,14.1,13,21.6,18.6c6.1,2.8,14.1,3.5,20.7,2c-6.3-5.2-12-10.9-17.2-17.1c-2-2.9-2.5-6.6-5.2-9.2
	C1956,425.5,1948.2,425.4,1943,429.9z M1951,377.6c6.7,8.3,17.1,4.9,26.6,5.3v-1l-14.6-12.3C1958.9,370.9,1954.5,374.5,1951,377.6
	L1951,377.6z M1682.3,239.9l8.4,26.3c-0.1-14.9,6.7-27.3,5.3-42.5l6.3-9.3l-13.3,4.1C1685.5,225.2,1682.6,231.9,1682.3,239.9z
	 M1687.9,194.4l11.5-6.7v-17.1c-4.8,2.9-7.5,7.9-11.2,11.8L1687.9,194.4z"/>
<path class="st1" d="M1924.8,221c-2.8,3.7-7,4.5-10.5,5.3c6.1-11.2,9-26.9,4.2-39.6c3.2-1.2,6.7-1.7,9.8-3.5l-0.3-0.3l8.1-7
	c10.6-7.3,6.6-21.2,10.5-31.5c-5.3-8.2-6.9-18.1-14.5-25l0.5-0.3c-6-7.6-16.8-6.7-25-10.5c-10.8-3.6-19.1,3.8-26.9,8.8
	c-3.4,0.6-1.3,5-4.9,4.8c-2,5.4-4.5,11.2-6,17.2c-14.4-2-30.1-0.4-41.6,7.7c-6.2-4.5-13.6-5.4-20.8-7.4c-5.2-1-11.2,0.9-15-2.1
	c-5.5-6.3-6.7-17.6-16.2-19.3c-3.3-1.2-4.1-4.8-4.1-8.1c-6.3-1-11.9-3.9-18-5.3c-9.3-4.2-16.8,2.5-23.8,7c-3.1,1.3-6.6,1.7-9.5,3.5
	c-5.2,8.2-10.2,16.5-13.6,25.5c1,7.4,4.2,14,8.1,20.3c3.4,9.5,13.9,16.9,22.8,20.7c-4.2,15.1-4.2,31.1,0,46.3l-0.2,0.2
	c-0.1,0.1-0.3,0.3-0.5,0.4c-1.4,0-2.9,0.3-4.1-0.4h-0.2c2,13.9,8.6,26.1,19.2,36.6c3.8,1.3,2.9,5.9,4.5,8.8c1,1.3,1.2,4.1,0.7,5.2
	c-21.5-0.7-42.7,4.6-61.3,15.3c-4.7,2.3-2.6,8.8-3.1,13.3c12.9-8.5,26.7-14.7,42-17.5c6.6-0.4,14-2,20.3-0.3l0.7,12.6
	c-17.4,9-36.4,14.3-51.3,29.2c0.3,4.5-0.6,9.8,0.7,13.6l13.3-10.8c12.8-9.8,26.3-18.1,41-23.5c3.9,4.7,8.1,9.7,13.3,12.5
	c8.9-5.7,18.6-9.9,28.8-12.5c5.4-3.2,14-0.3,17.5-6.7l2.5-13.3c-0.5-0.3-0.7-0.9-1.5-0.7c-6.8-3.9-11.4-10.8-10.8-18.8
	c-2.3,1.2-5,1.9-7.7,2c-2.3-0.6-4.5-1.2-5.6-3.5c-0.2-2.9-1.6-7.3,1.3-9.5c9.5-5.9,21.8-6.1,33.8-5.2c8.9,1.2,21.7,0.7,24.8,11.2
	c-0.4,3.1-0.2,6.4-3.2,8.5c-3.2,1.7-6.8-0.2-9.8-1.5c-2.3,7.1-6.2,15.2-14.3,17.5l1,8.5c1,3.8,1.3,10.1,7.3,8.8
	c13.9,3.4,26.1,10.5,38.3,18.3c4.1-4.1,7.3-8.8,10.2-13c21.6,7.3,40.3,23.5,58.1,38.6l0.7-12.3c-16.9-15-35.8-25.7-55.3-34
	c0.7-3.9,1.6-7.8,1.7-12c23.2,1.3,45.2,8.5,64.4,19.7l-0.3-10.5c-20.1-10.8-42.2-18-66.3-18.3c-0.8-1.4-1.2-3-1-4.5
	c11.7-1.9,20-14,22.8-24.5c6-6.8,14.6-14.3,12.6-24.5c0.3-0.8,0.5-1.7,0.9-2.6C1925,226,1925.6,223.4,1924.8,221L1924.8,221z"/>
<path class="st1" d="M1945.1,258.5l12-3.8l1.3-6.7c3.4-9.8-3.8-17.1-7.3-24.8L1945.1,258.5L1945.1,258.5z M1975.3,304.8
	c5.7,6.3,11.2,16.4,21.3,13.3c-0.7-4.2-3.1-7.7-4.5-11.5c-2.6-3.1-3.5-11.8-8.8-8.8c-3.9-2.6-4.9-7-7.4-10.5
	C1974.7,292.6,1975.4,299.4,1975.3,304.8z M1977.3,347.5c2.2,3.1,2.8,7,5,9.8c4,2.6,9.8,2.2,14.6,1.7c4.4-1,7.2,3.8,11.2,1
	c-5.1-3.2-8.2-9.1-13-13.3C1989.4,342.3,1983.3,346.2,1977.3,347.5L1977.3,347.5z M1985.1,415.4c10.1,6,22.9,11.9,36.3,9.8
	c1.4-0.7,3.9-0.6,4.2-2.3c-8.3-2.9-17-11.3-25.8-13c-4.9-7.5-11.1,1.9-17.2,1.3C1982.7,413,1984.5,414.3,1985.1,415.4L1985.1,415.4z
	 M2015.4,544.4l2.2,4.7c2.2,15.2,11.8,29.2,6.6,45.8c4.4,3.1,5.7,8.2,8.5,12.2h0.7c3.4-12.7,1-25.8-0.7-38.5
	C2034,557.1,2022.3,550.3,2015.4,544.4L2015.4,544.4z M2017.9,394.8c7.6,5.9,19.7,6.4,28.5,3.5c-5.5-3-11.7-6.4-16.2-10.5
	L2017.9,394.8L2017.9,394.8z M2053.9,439.7c-0.7,6.1,3.4,11.3,7.7,14.3c1.6-3.6,4.2-6.7,4.5-10.8c-1.4-6.5-5.1-12.3-10.5-16.2
	C2054.6,431.1,2053.5,435,2053.9,439.7L2053.9,439.7z M2054.4,506.2c-1,6.8,6.6,7.8,9.8,11.5c2.7,3.2-1.7,5.4-1.7,8.5
	c5.5,7.1,8.8,15.3,8.8,24.8c2.2-8.9,5.5-17.4,6.7-26.6c-0.6-6.4-10.8-5.1-9.2-12.2c2.9-7.3-0.6-14.5-2.5-21c-0.6-1-1.9-3.1-3-2.5
	C2060.5,494.7,2053.9,498.9,2054.4,506.2L2054.4,506.2z M2074.4,471.5l7.6,14.7c3.4-0.4,5.5-3.6,8.2-6c2.1-6.1-3.4-10.1-4.9-15
	c-1.3-3.5,0-8.2-2.5-11.3c-1.9-1.2-4.1-3-6.3-2.5L2074.4,471.5L2074.4,471.5z M2084.2,432.7c6,3.6,12.8,8.9,16,15.3
	c5.1,14.9,13.3,28.3,19.3,42.8c2.2,10.1,4,19.1,6.7,29c1.1,2.6,0.5,7.7,4.5,7.3c1.2-11.1,3.4-21.7,3.5-33.3c-3.7-4.8-8.5-6.8-13-9.8
	v-1c0.6-2.5,2.6-5.4,5.7-4.9c1.3-1.5,5.2-2.9,3.5-5.5c-7.6-7.6-7.2-20.7-19.3-23c-4.2-1.7-5.3-6.1-5.7-10.2
	C2099.8,434.4,2091.3,432.8,2084.2,432.7z M2091.2,511.8c7.5,6.8,4.9,16.8,4.2,26c-1.1,5.5,5.9,2.3,8.1,5.2
	c4.5,6.7,1.9,16.5,0.3,23.8c4-6,8.5-11.2,11.5-17.8c-0.2-2.5,3-3.7,2.9-6.7c1.3-4.2-3.6-2.3-5.7-2.8c-1.8-0.5-3.7-1.6-3.1-3.9
	c3.8-7.3,0.3-16.1-1.2-23.4c-1.7-6,0.7-14-2-19.3C2101.5,499.4,2087.6,500.9,2091.2,511.8z M2104.7,408.1
	c13,13.2,22.5,26.4,36.5,39.1c0.3-5.7-0.4-11-0.7-16.5c-2.1-3.9-5.9-6.8-9-9.8C2121.1,419.9,2115.7,406,2104.7,408.1z M2138.8,477.7
	c0.3,1.3,0.9,2.4,1.4,3.8c5.7,9.3,11.1,19,15.1,29c-1.2-10.8,6.1-24.2-3.5-32.5c-1.3-3.5-5.7-2.3-8.5-2L2138.8,477.7L2138.8,477.7z
	 M2173.8,584.4c4.1,1.9,9.3-1.5,13.3-3.8c3.7-0.9,6.7,1.2,9.5,3.1c1.2,2.3,0,4.5,0.4,6.7c8.8,2.5,17.4,5.7,25.1,10.8l2.5-2.5
	c0.6-6.3-4.4-10.8-9-14.3c-3.1-1.8-7.6-0.7-9.8-3.5c1.5-2.3,1.5-5.8,1.3-8.5c-4.9,0-7.9-1.5-11.8-3.8c-2.5-0.7-4.7-2.8-6.7,0
	C2181.3,573.6,2180.8,580.8,2173.8,584.4L2173.8,584.4z M2184.1,400.6c3.6-1,7.4-2.1,10.5-4.7c9.8-8.9,23.9-2.9,35.3-3.1
	c-2.3-4-5-7.7-8-11.2c-4.1-1.6-7.9-3.5-12.6-3.5c-9.9-5.8-16.6,3.9-24.2,8.8C2183,390.9,2182,396.7,2184.1,400.6L2184.1,400.6z
	 M2184.3,430.7c0-0.4,0-0.9,0.5-1c1.3,1.2-0.2,3.9,2,4.5c3.8-1.9,7.3-4.5,10.8-7c9.8,0,15.6-9.5,25.2-9.5c16.1,2.9,32,6.1,46,14
	c-1-9.5-9.2-18.1-17.5-22.4c-4.7-1.6-8.3,0.9-11.7,3.5c-9.8,6.1-4.7-8.9-11.5-9.2c-8.9,2.8-18.1,5.8-28,5c-5.8,2.2-9.9,7.6-16.5,7
	C2183.3,420.5,2182.6,426.3,2184.3,430.7z M2191,463.3c3.1,3.2,8.2,2.6,12.6,3.2l12.7-4.9c0.2-2.3-3.8-2.9-2.9-5.5
	c3.5-3.9,8.3-1.2,12.7-2.8c6.2-0.9,12.4-7,18.6-2.4c-0.2,0.7,0.3,1.7-0.3,2.4c-1.9,4.6,1.3,7.3,4.8,9.1c7.2,1.3,13.9,7.9,21,4.9
	c-0.7-6-2.3-11.5-3.8-17.2c-6-1-10.2-6-15.8-8.1c-2.5,2.3-5.7,4.1-8.8,3.8c-11.2-2.6-24.7-9.6-36.1-2.5c-4.1,4.9-11.4,3.5-16.9,5.7
	C2189.1,453.9,2189.7,458.7,2191,463.3L2191,463.3z M2195.9,550c-0.9,2.5-3.4,6.6,1.2,7.8c9.4,0.3,21.3-4.5,28.6,2.8
	c2.5,1.9,1.3,5.8,1.2,8.3l12.2,10.2c1.2-6.1,3.4-11.7,3.5-18.3c-0.9-4.8-3.5-9.2-7.4-12.2c-8.1,0-12.7-9.4-21.4-8.2
	c-4.5-1-8.4,3-13,3C2198.8,545.4,2197.6,547.9,2195.9,550L2195.9,550z M2199.4,481.2c1.9,3.9,4.1,10.4,7.7,10.8
	c8.6-3.8,21.1-6.1,30.8-2c3.2,0.6,3.2,4.2,2.5,6.6c4.9,2.9,10.9,5.2,16.2,8.5l-1.4-8.8c-0.3-9.5-12.3-10.4-13-19.8
	c-9.8-3.2-20.7-4.2-31.1-1.7c-3.4,3.1-8.2,2.6-12.3,3.5C2198.5,479.5,2199.2,480.2,2199.4,481.2L2199.4,481.2z M2201.9,528.5
	c5.7-1.6,9.3-7.9,15.4-8.5c9.4,0.2,17.7,3.9,23.5,12c3.5,2.3,2.8,8.3,7.3,8.3c-1.3-7.2,1-13.7,0.8-21c-6.2-10.2-21.3-2.3-27-14.3
	l-10.8,0.7c-7.7,1.9-5.7,11-6.7,17.1C2203.4,524.7,2201.7,526.2,2201.9,528.5L2201.9,528.5z M2255.4,592.4
	c4.5,9,14.5,15.9,15.5,26.3c2.3-2.8,4-6,5.5-9.1c-0.2-2.9-3.5-2.9-4.9-5.2c-1.3-3.8,0.8-7.2,1.3-10.5c-1.9-5.4-6.4-10.5-11.5-13.7
	L2255.4,592.4L2255.4,592.4z M2273.4,569.3l10.5,14.3c4.5-7.2,4.5-17.7,2.7-26.3c-1-1.6-2.9-4.2-5.5-3.1
	C2277.2,558.4,2276.6,564.6,2273.4,569.3z M2230.6,169.7c3.8,1.9,7.4,3.7,12,3.9c3.1-1.6,7-2.8,10.8-1.7c5.4,3.5,12-0.7,18.2-0.5
	c-5.5-5.2-11.8-8.5-18.2-11.5C2245.2,161.6,2238.7,167.5,2230.6,169.7z M2287.7,183.4c7.7,0.7,13.3,7.6,18.5,13.3
	c6.6,1,11.5,5.7,15.5,10.5l-2.5-7.8c-1.8-7.8-6.6-13.7-11.5-19.8C2300.7,180.1,2293.8,180.6,2287.7,183.4L2287.7,183.4z"/>
<path class="st2" d="M1742.8,119.3l4.2,0.4c11.4,5.7,29.8,8.6,30.8,25.1c-11.5,4.5-22.6,10.7-31.8,20c-7-7.1-21.2-3.2-23.5-15.8
	C1724.8,137.3,1729,122.4,1742.8,119.3L1742.8,119.3z M1753.8,193.4c13.3-1.2,26.1,0.7,39.9-0.5c3.4,1.5,6.8,4.4,8.5,7.7
	c-0.5,15.8-5.3,30.8-6,47c-6,2.5-11.8,7.5-13.3,14c-5.4,1.6-10.2,4.8-15.5,7.3c-2.3-5-1.9-12.4,2.2-16.5c5.7-8.1,20.5-6.1,19.3-18.8
	c3.8-6.1,0.2-14,0.3-20.4c-1.5-4.8-2.9,1.6-5.2,1.5c-4.7,1-9.5,1.3-13.6-1c-3.1-3.2-6.9-5.9-7.8-10.2c-4.1-2-8.9-5.3-10.9-9.5
	L1753.8,193.4L1753.8,193.4z M1769.9,288.6c6.2,0.9,12.8-1.9,18.3,1.2c-1.2,2.1-4.2,2.9-6.7,3.5l-9.8,4.5
	C1767.9,296.9,1770,291,1769.9,288.6L1769.9,288.6z M1795.4,166.6c6.3-2,13-6.3,19.7-4.2c-4.8,4.8-8.6,11.1-12.2,16.9l-20-0.4
	C1785,173.7,1790.6,169.3,1795.4,166.6L1795.4,166.6z M1854,161.8c8.3-1.5,7.9,9.3,15.4,9.8c1.3,1.7,3.2,3.4,2.5,6
	c-4.4,1.7-10.8,0.9-15.8,2c-6.6-3.7-2.3-15-12.7-14.3c-0.5-0.9-1.7-2.6-0.3-3.2C1846.4,161,1850.6,161.4,1854,161.8L1854,161.8z
	 M1848.7,201c3.7-5.1,9.2-5.6,14.5-6.6l37.8,0.7c1.6,1.5-1.5,2.8-1.5,4.5c-2.3,2.2-5.7,2.8-7.7,4.8c-5,0.2-4.5,6-8.1,8.5
	c-5.4,5.4-13.3,2.9-19.6,2.1c-2.2-1.6-4.7-3.8-5.7-6.3l-1.8,1.7c2.2,8.2,1.6,17.2,3.2,25.6l9,6c0.1,13.4,15.9,9.8,22.8,17.2
	c-1.6,4.8-4.8,8.9-8.3,13c-5.3-5.1-11.6-8.9-18.6-11.2c-0.6-7.9-9.2-12.6-14-16.5c-1.3-14.3-1.6-28.9-3.9-42.8L1848.7,201
	L1848.7,201z M1862.4,291h17.5l-2.2,9.2l-17.6-7.5C1859.8,291.3,1861.4,290.9,1862.4,291z M1894,125.6l13-4.1
	c7.5,3.5,14.4,7.9,21.3,12.9c5.4,9.9,4.5,23.4,2.1,34.4c-4,4.4-12.6,0-15.8,7h-0.6c-4.9-13.7-18.5-26-31.2-32.3
	C1884.8,136.6,1887,129.7,1894,125.6L1894,125.6z"/>
<path class="st1" d="M2198.5,681.9h77.9c11.5-1.7,23.8-1.5,33-10c39,6,78.6-3.6,109.2-25.1c16.1-12.9,30.4-27.9,42.5-44.7
	c10.4-14.5,18.6-28.1,23.8-44.4c3.9-10.1,7.1-20.5,9.4-31.3c11.2-50.6,5.3-107.2-11.2-155.3c-3-8.8-6.4-17.4-10.2-25.8
	c-20.6-42.5-48.5-88.3-91.6-115.2c-24.3-15.1-46.6-38.6-60.3-62.8c-7.4-6.7-14.6-15.6-24.3-17.3c2.7,4.4,5.6,8.6,6.3,13.7l-0.6,0.7
	c-10.2,0.3-18.3-5.1-25.2-11.7l7.7-7c-2.9-1.5-6.3-2-9.5-2.8c-29.5-3.4-53.7,10.2-79.9,16.8l-0.4,1.5c16.1,7.1,19.4,24.8,28.7,36.8
	c2.3-2.8,6.3-0.7,9.5-1c4.7,0.3,9,3.7,13.6,2.5c0.2-3.9-2-7-2.7-10.5c2.7-1.3,6.1-0.2,9.2,0c8.4,5,22-0.9,27.3,10.5
	c-9.7,0.6-18.7,2.6-27.8,4.8c0.6,3.7,4.2,6.6,4,10.2c-7.9-3.2-16.1-5.3-24.6-6.3l-0.4,1.3c11,12.9,26,20.5,41.3,25
	c22.1,5.1,41.5-5.4,62.8-1.7c52.3,23.9,96.9,78.7,116.4,130.7c1,2.5,1.9,5,2.7,7.6c16.3,47.5,19.3,105.9,3,155.3
	c-8.7,20.6-18.2,40-33.5,56.8c-5.6,7-12.1,13.3-19.1,18.8c-21.9,17.1-48.9,24.6-76.8,16.9c-1.7-1.2-5.3-1.5-4.7-4.5
	c1-4.1,1.9-8.2,2.7-12.4c4.6-23.7,6.7-48.7,5.5-73.7c-0.1-1.1-0.1-2.2-0.1-3.2c-1.5-36.2-8.8-68.8-22.1-100.1
	c-8.5-18-18.7-37.6-31.5-55.2c-15.2-21-34.2-39.1-58.5-48.2c-14.9-3.9-33.3-4.6-44.5,7.8c-8.1,7-11.4,16.5-10.2,26.9
	c-12.6,8-26.7,12.3-42,13.6c-3.8,0.3-7.6,1.7-11.5,1.7c-3.7,0.2-7.4,0-10.9-0.4c-18.5-2.3-37.2-12.2-51.4-23.7
	c-0.3-7.6-0.7-14.7-1-22.7c-8.2-4.2-14.9-12.3-15.4-21.8l0.7-0.7c4.7,1.5,8.8,3.8,12.9,6.3c-1.9-11.4-4.1-22.6-9.8-32.6
	c-5.3-2.2-10.5-3.9-15.5-6.6c-5.7-3.8-9.3-10.7-10.2-16.9c5.1,5,14,3.2,17.9,8.5c-6.8-20.3-7-43.5-18.3-62.1
	c-5.7-13.7-20.6-20-30.8-30.1c-4-4.8-5.5-11.5-12.7-12.3c-5.9-1.5-6.3-8.1-7.3-12.3c3.6,0.4,6.7,2.9,9.8,3.5
	c-8.5-22.5-15.9-47.4-38.8-61.8l-3.9,2.5c-8.9,1.3-18.4,1.9-27.3,2.2c3.9-5.9,10.9-8.3,16.5-11c-6.4-4.8-11.7-6-19.8-7.3
	c-4.6,4.7-13.1,7-19.1,8.3l-0.7-0.6c-0.2-5.2-1.4-11.7,6.5-13c-7.6-3.7-20.1-2.2-27.9,0c-2.2,5.7-8.4,10.8-8,17.5
	c-4.5,4.7-7.7,11-12.4,14.3c-0.1-11.2,4.6-21.6,6.7-31.1c-6.6,2.5-13.2,6-19.7,9.1c-10.4-6-21.3-12-32.4-16.5
	c-1.1-0.5-3.3-0.9-2.8,1c9.5,6.8,5.8,19.7,6.8,29.5l-6-5c-2.9-7.4-11.3-12.8-12.8-21c-9.9,1.9-16.3,4.6-25.5,8.5l-1.3,0.7
	c6.8,0,12.7,5.4,16.1,10.8c-10.4,0.6-19.6-3.5-29.8-4.5c-1-1-1.9-2.2-3.5-2c-5.1,1.9-9.5,5.5-14,9c-10.1,9.9-20.3,20.9-25.1,34
	c3.4,0.6,7.6,0.5,10.1,2.5c-5.5,3.4-10.4,9-15.8,12.2c-1.9,7.6-1.6,16.2-2.1,24.5c-4.2,6.4-9.9,12.1-12.7,19.3
	c-9,29.3-11.4,61.9-10.1,95.2c-2.9,2.8-6.8,4.5-9.5,6.7l0.3,29.8h0.7c1.3-6.3,8.8-9.8,13.3-14h1.5c-0.7,6.7-1.6,13.4-1.7,20.3
	l-8.5,7c-8.5,7.5-1.3,18.7-2,28c0.6,2.5,1,6.1,2.8,6.7c1-3.7,4.2-6.3,6.3-9.5c3.7-0.9,6.8-3.8,10.2-4.2c-1.9,7.3-4.4,14.5-7.3,21.5
	c-1.4,0.9-3,2.2-4.4,3.7c-1.5,1.5-2.6,3.4-2.9,5.4c6.6,34.6,16.9,68.7,28.7,101.3c-8.1,13.6-12.6,29.6-19.3,43.6c-1,2-1.8,4-2.6,6
	c-6.7,17-8.8,35.9-17.1,52.3c-3.4-2.3-7-4.2-10.8-5.7c-15.8-5.3-34-1.9-45.6,10.2c-10.2-1.9-20.7-0.2-28.8,5.2
	c-5.8,4.3-10.2,9.5-12.8,15.6c-1.8,4.4-2.6,9.1-2.3,13.9c-6.6,4.5-10.1,11.5-12.2,18.5c-3.1,15.8,2.5,32.2,11.5,44.3L2198.5,681.9
	L2198.5,681.9L2198.5,681.9z"/>
<path class="st2" d="M2483.1,371.2c-3-8.8-6.4-17.4-10.2-25.8c-20.6-42.5-48.5-88.3-91.6-115.2c-24.3-15.1-46.6-38.6-60.3-62.8
	c-7.4-6.7-14.6-15.6-24.3-17.3c2.7,4.4,5.6,8.6,6.3,13.7l-0.6,0.7c-10.2,0.3-18.3-5.1-25.2-11.7l7.7-7c-2.9-1.5-6.3-2-9.5-2.8
	c-29.5-3.4-53.7,10.2-79.9,16.8l-0.4,1.5c16.1,7.1,19.4,24.8,28.7,36.8c2.3-2.8,6.3-0.7,9.5-1c4.7,0.3,9,3.7,13.6,2.5
	c0.2-3.9-2-7-2.7-10.5c2.7-1.3,6.1-0.2,9.2,0c8.4,5,22-0.9,27.3,10.5c-9.7,0.6-18.7,2.6-27.8,4.8c0.6,3.7,4.2,6.6,4,10.2
	c-7.9-3.2-16.1-5.3-24.6-6.3l-0.4,1.3c11,12.9,26,20.5,41.3,25c22.1,5.1,41.5-5.4,62.8-1.7c52.3,23.9,96.9,78.7,116.4,130.7
	c1,2.5,1.9,5,2.7,7.6c16.3,47.5,19.3,105.9,3,155.3c-8.7,20.6-18.2,40-33.5,56.8c-5.6,7-12.1,13.3-19.1,18.8
	c-21.9,17.1-48.9,24.6-76.8,16.9c-1.7-1.2-5.3-1.5-4.7-4.5c1-4.1,1.9-8.2,2.7-12.4c4.6-23.7,6.7-48.7,5.5-73.7
	c-0.1-1.1-0.1-2.2-0.1-3.2c-1.5-36.2-8.8-68.8-22.1-100.1c-8.5-18-18.7-37.6-31.5-55.2c-15.2-21-34.2-39.1-58.5-48.2
	c-14.9-3.9-33.3-4.6-44.5,7.8c-8.1,7-11.4,16.5-10.2,26.9c-12.6,8-26.7,12.3-42,13.6c-3.8,0.3-7.6,1.7-11.5,1.7
	c-3.7,0.2-7.4,0-10.9-0.4c-18.5-2.3-37.2-12.2-51.4-23.7c-0.3-7.6-0.7-14.7-1-22.7c-8.2-4.2-14.9-12.3-15.4-21.8l0.7-0.7
	c4.7,1.5,8.8,3.8,12.9,6.3c-1.9-11.4-4.1-22.6-9.8-32.6c-5.3-2.2-10.5-3.9-15.5-6.6c-5.7-3.8-9.3-10.7-10.2-16.9
	c5.1,5,14,3.2,17.9,8.5c-6.8-20.3-7-43.5-18.3-62.1c-5.7-13.7-20.6-20-30.8-30.1c-4-4.8-5.5-11.5-12.7-12.3
	c-5.9-1.5-6.3-8.1-7.3-12.3c3.6,0.4,6.7,2.9,9.8,3.5c-8.5-22.5-15.9-47.4-38.8-61.8l-3.9,2.5c-8.9,1.3-18.4,1.9-27.3,2.2
	c3.9-5.9,10.9-8.3,16.5-11c-6.4-4.8-11.7-6-19.8-7.3c-4.6,4.7-13.1,7-19.1,8.3l-0.7-0.6c-0.2-5.2-1.4-11.7,6.5-13
	c-7.6-3.7-20.1-2.2-27.9,0c-2.2,5.7-8.4,10.8-8,17.5c-4.5,4.7-7.7,11-12.4,14.3c-0.1-11.2,4.6-21.6,6.7-31.1
	c-6.6,2.5-13.2,6-19.7,9.1c-10.4-6-21.3-12-32.4-16.5c-1.1-0.5-3.3-0.9-2.8,1c9.5,6.8,5.8,19.7,6.8,29.5l-6-5
	c-2.9-7.4-11.3-12.8-12.8-21c-9.9,1.9-16.3,4.6-25.5,8.5l-1.3,0.7c6.8,0,12.7,5.4,16.1,10.8c-10.4,0.6-19.6-3.5-29.8-4.5
	c-1-1-1.9-2.2-3.5-2c-5.1,1.9-9.5,5.5-14,9c-10.1,9.9-20.3,20.9-25.1,34c3.4,0.6,7.6,0.5,10.1,2.5c-5.5,3.4-10.4,9-15.8,12.2
	c-1.9,7.6-1.6,16.2-2.1,24.5c-4.2,6.4-9.9,12.1-12.7,19.3c-9,29.3-11.4,61.9-10.1,95.2c-2.9,2.8-6.8,4.5-9.5,6.7l0.3,29.8h0.7
	c1.3-6.3,8.8-9.8,13.3-14h1.5c-0.7,6.7-1.6,13.4-1.7,20.3l-8.5,7c-8.5,7.5-1.3,18.7-2,28c0.6,2.5,1,6.1,2.8,6.7
	c1-3.7,4.2-6.3,6.3-9.5c3.7-0.9,6.8-3.8,10.2-4.2c-1.9,7.3-4.4,14.5-7.3,21.5c-1.4,0.9-3,2.2-4.4,3.7c-1.5,1.5-2.6,3.4-2.9,5.4
	c6.6,34.6,16.9,68.7,28.7,101.3c-8.1,13.6-12.6,29.6-19.3,43.6c-1,2-1.8,4-2.6,6c-6.7,17-8.8,35.9-17.1,52.3
	c-3.4-2.3-7-4.2-10.8-5.7c-15.8-5.3-34-1.9-45.6,10.2c-10.2-1.9-20.7-0.2-28.8,5.2c-5.8,4.3-10.2,9.5-12.8,15.6
	c-1.8,4.4-2.6,9.1-2.3,13.9c-6.6,4.5-10.1,11.5-12.2,18.5c-3.1,15.8,2.5,32.2,11.5,44.3h258c-3.8-4.5-7.3-10.8-10-16.2
	c-5.5-8.3-1.7-20.2-2.3-29.8c5.3-10.6,10.6-21.3,16.6-31.7c1.2-2.1,2.4-4.1,3.7-6.2l11.8-4.5c6.3,0,11.5-4.5,17.5-2.9
	c8.1,8,8.1-8,15.8-8.8c18.1-2.3,36.1-0.6,46.3,14.7c0,2,3.2,2,2.5,3.9c-2.3,0.7-4.5-0.7-7-0.7c-11.1-2.8-24.1-9.8-35-3.5
	c-0.4,2.6-1,5.3-1.5,7.9c-0.5,2.8-1,5.5-1.3,8.2c7.2,2,13.2,7.1,18.6,12.7c3.7-7.1,11.4-10.3,18.3-12.7c6,1.3,12.6,1.5,17.6,5.2
	c9.2,8.5,4.6,22.9,3.8,33.7c8.3,4.7,17.5,7.3,26,11.8c-3.9,3.5-9.1,5-14,6.7l-14-2.8c-1.6-1.2-4.4-1.2-5-3.2
	c-4.6,4.9-10.3,11.5-13.3,17.9h200c-2.7-6-5.7-10.7-9.4-16.2c-4.1-8.8-2.4-20.7-2.9-30.1l18.7-28.5c10.2-0.1,21.8-3.9,32.9-2
	c0.6-0.2,1.1-0.5,1.6-0.9c4.6-3.2,6-10.6,12.9-9.6c12.2-3.4,21.6,2.2,30.8,7.7c-0.3,0.7-0.6,1.3-1,1.9c-3.8,6.2-11.1-0.7-16.3,1.2
	c-2.2,2.3,1,5.1,1.5,7.7c1.9,2.6-1.9,2.3-3.2,2.8c-3.2,0.5-6.5-0.5-8.8-2.8c-0.6-0.7-0.2-1.6-1.3-1.7c-2.6,4.4-6.4,8.3-7.4,13.3
	c3.4,3.2,7.9,6.4,9.5,10.5c3.4,4.8-2.7,8.5-3.8,12.7c-0.5,0.9-1.8,0.9-2.2,0c-3.1-1.7-5.7-6.1-9-5c-2.9,13,1,26-0.8,39
	c5.7,1.3,12.4-0.3,18.6,0l2.5-27.4c2.6-17.8,13.1-32.7,25.5-46.3c13.4-9.2,22.1,8.9,32,15.2c1.6,0.3,1,2.1,1.8,3.1
	c-0.2,2.9-3.2,4.1-5.2,5c-6.2,2.2-10.7-4.5-14.5-8.5c-3.7,3.9-5.2,9.2-9.5,12.3l1.4,0.4c4.9,4.8,9.5,9.9,10.5,16.4
	c-0.6,5.8-3.5,11.5-8.8,14.5c-3.8-6.7-7.1-13.8-9.8-21c0.2,0.3-0.2,0.4-0.5,0.7c-8,2.2-10.2,11.2-11.5,18.6c0.5,7.1-5,10.1-3.5,17.2
	h104.1c11.5-1.7,23.8-1.5,33-10c39,6,78.6-3.6,109.2-25.1c16.1-12.9,30.4-27.9,42.5-44.7c10.4-14.5,18.6-28.1,23.8-44.4
	c3.9-10.1,7.1-20.5,9.4-31.3C2505.4,475.9,2499.6,419.4,2483.1,371.2L2483.1,371.2z"/>
<path class="st2" d="M1813.1,642.2c5.7-3.6,14.9-4.5,16.2-13c-2.3-1.7-4.4-4-7-4.5l-6,1.7c0.5-3.5,2.3-7.4,3.5-11.2l19.3-6.3
	c-2.7,8.8-3.7,19.7-4.5,29.8c1.8,14.9,4,30.8,11.5,43.2h-20.8C1823,668.2,1808.7,658.2,1813.1,642.2L1813.1,642.2z M1857.9,624.7
	h1.2l14,12.7l2-0.5c-1.2,15-1.9,30-2,45h-15.2c-3.1-14.4-8.2-29.6-7.6-45.2C1853,632.7,1854.7,627.7,1857.9,624.7z M1889.2,638.7
	c2.8-3.6,3.9-9.8,9.5-10.5c4,0.1,7.6,0.7,10.5,3.5c5.1,6.4,0.1,14.6-1.7,21c-2,9.8-5.6,20-8.8,29.2h-14.7L1889.2,638.7L1889.2,638.7
	z M2110.7,634.1c3.2,4.1,4.2,9.6,9,13.3c4.2-5.9,5.2-14.9,3.2-22.4l-4.2-4.2c5.4-1.3,11.1-1.7,16.5-2.8c-2.3,7.8-6.7,14.7-6,23.8
	c0.2,13.2,2.3,26.3,3.5,40h-16.1c-5.9-12.8-11.7-25.1-11.2-40C2107.1,639.3,2108.3,636.2,2110.7,634.1L2110.7,634.1z"/>
<path class="st1" d="M2179.7,353.6c-0.2,3.8-2.9,8-0.4,11.2c3.5-3.9,9.3-3.8,14-5.6c13-1.2,25.4,2.9,37.5,5.9
	c-3-4.8-5.1-10.2-8.4-14.6c-6.7-1.8-16.9,2.9-18.1-7c-4.1-3.5-10.5-1-14.7-0.7C2185.5,345.6,2182.1,349.3,2179.7,353.6L2179.7,353.6
	z M1733.5,227.5c-0.1,0-0.1-0.1-0.2-0.2l0,0.2H1733.5z M1786.6,357.3l8.8-8.5c0.7,0,1.3,0.2,1.7,0.7l-0.7,16.2
	c4.2,3.9,9.4,5.3,15,5.6c0.5-4.4,3.8-7.5,5.7-11.2c1.6-3.1,0.6-7.6,3.8-9.8l1,1c1,4.8,0.7,10.2,3.2,14.4c0.3,2.4,0.7,5.3,1,7.3
	c6,0.2,11.9-1.1,17.2-3.8c-0.3-5.5,1.6-10.1,2.5-15.2c1.3-1.8-1.6-5,2-4.8c2.1,4.4,5.7,8.9,7.7,13.6c8.5-8.6,12-19.9,14-31.5
	c-2.5-3.4-6.2-3.4-9.2-5.5c-24.8-8-56.6-9.6-80.6,2.8C1778.2,338.5,1780.3,349.4,1786.6,357.3L1786.6,357.3z M1554.5,631.3
	c-0.9,11.3,0,21.8,0.7,32.9c2.3,3.7,6.6,7.9,10.8,8.2l0.7-7.5c1.8-10.4-3.8-21.4,2.1-30.1c4.1,1.3,8.2,3.4,11.7,5.2
	c1.7-9.6-0.8-20.9-10-26.7L1554.5,631.3L1554.5,631.3z M1590.6,615.5c-5.7,17.1-9.9,38.1-3.1,56.1c4-2.6,8-5.1,11.5-8.8
	c-0.7-13.8-2.6-28.4,5.5-39.8c7.2,2.2,12,9.1,14.7,15.8c4.9-6.1,6.4-14.6,4.5-22.7c0.3-6.4-7-5-10.5-7.6c1.2-5.4,1-11.7,6.7-14.7
	l-17.5,1.7C1598,602,1593.1,608.2,1590.6,615.5z M1626.7,666c0.7,1.3,0,3.7,1.5,3.9c2.2-12.3,12.1-20.2,17.5-31
	c2.6-3.6,2.5-8.8,6.7-11.5c5.7,0,9.8,4.1,15.4,4.5c1.7,1.3-0.9,2.5-1,3.9c-1.2,10-5,18.2-4.2,28.4h1c7.8-8.2,13-17,18.7-26.4l1-8.3
	c1.3-9.9-9.5-16.4-16.5-20.5l6.3-8l-8.8-3.1c-10.3,0.8-19.8,5.6-26.6,13.3C1628.7,627.7,1627.2,646.1,1626.7,666L1626.7,666z
	 M1665.9,579.3c3.4,1,6.4-1.7,9.8-0.3c13.4,5,27.4,10.1,37.5,21.3l12,30.5l6-18.8l-4-10.2c-3.4-7.3-12.6-6.7-18.8-7
	c-2.6-2.9,0.2-6.3,1-9c3-10.4-9.6-9.8-14.7-14c0.3-6.3-7.3-4.1-11.5-4.7l-1.5-1.7c-0.9-1.3-3-1.3-4.2-0.3c-0.3-0.4-0.9-0.7-0.5-1.5
	l-3.2,0.7C1669.1,568.2,1666.1,573.3,1665.9,579.3L1665.9,579.3z M1674.4,545.8c0.5,1.9,1.5,3.7,3,4.9c6.6-1.7,12.9-6.3,20.5-3.5
	c9.8,8.6,20,17.7,31.8,22.3l4.2-0.7c2.6,0.9,5.5,1,7.3,3.9c1.6,3.9-2.5,6.3-3.8,9.5c6.6,4.8,4,13.4,8,19.3l10.5-14
	c-2.5-6.1,0.2-16.6-9.5-17.2c-3.3-1.5-5.3-4.9-5.3-8.5c-6.2-5.7-14-8.2-20.3-14c-5.1-4.1-8.2-10.3-14.7-11.8
	c-4.5-2.5-9.5-3.8-14.7-4.9C1681.7,529.5,1680.8,541.2,1674.4,545.8L1674.4,545.8z M1688.4,517l1.7,2.8c7.3-0.5,13.9-3.7,21-3.5
	c4.8,2.9,11.1,2.8,16.1,5.3c4,5.4,8.2,11.5,14,15.1c11.9,1.8,18.4,14.5,22.5,23.8V556c1.8-6.3-0.2-13.6-2.5-19.3
	c-2.9-2.9-7.2-4.8-10.2-7.4c-0.6-1.9-0.1-2.8,0.5-4.5c-4.5-4.8-11.2-7.5-16.8-11.2c-7.7-11.2-22.6-8.2-34.5-11.2L1688.4,517
	L1688.4,517z M1688.2,409.9c1.3,4.5,2.9,10.2,3.7,15c4.1-9,12.2-13.2,19.3-20.6c-4.1-2.8-9.2-4.1-13.7-5v-0.3
	C1694.3,402.3,1689.3,405.5,1688.2,409.9z M1714.7,457.9l6.6-6.7c6.6-6.7,12-14.5,13-23.1c-4.7-2.8-10.8-0.9-15.3,0.7
	C1717.3,438.4,1714.8,447.7,1714.7,457.9L1714.7,457.9z M1719.5,478.5c10.1,0.6,19.9,2.6,28.1-3.1l8.2-26.3
	c-2.6-0.2-5.3-1.3-7.7-0.5C1742.6,460.7,1731.8,472.5,1719.5,478.5L1719.5,478.5z M1722.4,385.4c6.6,9.6,17.6,20.4,28.8,23.5
	c-1.3-12.3-11.8-20.7-17.2-31.2l-0.3-3.5c-4.2-4.1-9.4-6.9-13.7-9.1C1719.2,372.1,1721.2,378.8,1722.4,385.4z M1758,479.7
	c7.8,1.3,16.1,0,23.2-2.2c10.4-2.5,16.1-13.9,19.6-22.8h-13l-14,13.7C1768.3,471.4,1763,475.7,1758,479.7z M1756.5,372.1
	c2.2,11.4,7,21.7,13.6,31.5l1.7-21.8L1756.5,372.1L1756.5,372.1z M1804.3,428.9c0.9-7.3-2.1-15.8-3-23.2c-4.4-2.9-10.5-2.6-15.1-5.5
	C1786.6,411.6,1795.6,421.4,1804.3,428.9L1804.3,428.9z M1791,503c9.2-2.9,18.1-6.1,26.6-10.8c5.4-7.8,13.6-14.7,14.7-23.8
	c-6.7,1.9-12.6-0.3-18.8,2.8c-3.8,6.8-6.2,14.6-13.5,19.5C1798.9,495.7,1793.5,499.1,1791,503z M1805.4,521l10.9,14.3
	c5.9,1.9,13.2,1.3,18.3-2l-3.9-13C1822.9,523.2,1813.7,522.3,1805.4,521z M1823.6,417.6l4.2,19.3c10.2-8.3,12.3-20.4,12-33.3
	C1834,410.3,1830.6,414.4,1823.6,417.6L1823.6,417.6z M1852.4,451.6c0.2,2.8,0.9,5.4,2.5,7.6c11.4,4.1,12.6,17.9,23.1,23.2
	c6.8,3.1,14.7-0.7,20.7-3.5c-4.5-5.1-9.6-8.6-14-14c-3-1.3-6.2-3.2-6-7L1852.4,451.6L1852.4,451.6z M1861.4,520.6
	c5,5.7,11.7,8.6,18.7,10.2c-1.2-1.6,0.7,0,1-1l-8.8-19.3c-4.4,0.2-9,1-13,0.8C1859.7,514.4,1860.4,517.6,1861.4,520.6z
	 M1876.9,430.6c-4.1-9.5-5.8-21-7-31.5c-4.4,5.3-8.9,8.6-13,14C1855,423.9,1870.5,426.5,1876.9,430.6z M1894.7,420.7
	c5.3,6.9,16.8,4.6,23.2,2.5c-3.1-5.3-13-8.3-14.7-14c-0.9-9.9-3.1-19.6-6.3-29C1891.8,392.5,1885.7,407.3,1894.7,420.7z
	 M1903.9,451.6c14.6,10.7,28.9,23.1,49.3,18.6c1.5-1,4-0.9,4.3-2.8c-6-3.8-12.4-6.7-18.6-10.2l-7-10.2h-3.2
	C1920.8,449.6,1912.4,450.6,1903.9,451.6z M1904.2,570h1c8.8-7,19.1-9.4,29.5-12.2c2.8,1,1,4.1,3.5,5.2c6.2-2.6,13.9-2,20.3-4.2
	c7.7,0.3,14,0.4,20.3,3.8c5,6.6,14.3,5.8,20.8,10.2l-1-10.2c-13.6-15.9-34.7-17.1-54.3-16.8l-0.5-2c-4.7,0-9.9,1-14.3,3
	c-6.2,0.3-12.2,3.4-18.2,5.3C1908.4,557.6,1906.2,564.4,1904.2,570z M1915.9,390.6c5.7,7.4,14.1,13.2,23.8,11.2
	c-4.9-4.8-10.6-10-10.9-16.8c1.5-13-12.8-14-19.9-20.7C1911.3,373.1,1911,382.9,1915.9,390.6z M1914.5,595.9h1.7
	c7.7-4.8,19-1.1,26.6-6.3c4.2-2.2,4.5,3.7,7.4,5.3c7.2,4.4,8.1,17.5,18.1,14.4c12.1,6.3,9,21,9.5,31.8l11.2-7
	c-1-5.7,2.2-12.6-1.5-17.5c-2.8-6.3-10.4-6.8-14-12c4.4-7.5-5.5-11-7.6-16.4l0.6-0.7l15.5,2c5.3,3.2,7.2,9,8.8,14.5
	c12.1,2,15,15.8,19.3,24.5c2.5-6,3.5-12.4,6-18.3c0.2-4.8-6.3-4.8-9.5-7c-0.9-7.5-4.3-14.4-10.8-19c-13.4-3.4-25.3-10.8-40-10.8
	l-12.2,3.8c-6.7,1.6-13.9-0.4-19,4.2C1916.9,582.2,1916.3,590.5,1914.5,595.9L1914.5,595.9z M1922.2,535.8l2.8,1.3
	c6-2.8,12-6,18.3-8.3c9.8-2.8,17.4,8.3,25.6,1.3c3-2.2,5.7,1,8,2.8c3.5,6.4,11.7,6,17.8,7.7c-3.1-8.3-6.9-19.7-17.5-21
	c-4.2-1.9-9.2-1.7-13.3-4.2c-11.2-12.4-18.6,10.2-30.8,4.7C1928.6,524.8,1923.2,529.3,1922.2,535.8z"/>
<path class="st1" d="M1924.9,606.8c4.7,3.9,9.5,10.7,16.8,9.8c9,4.2,5.2,16.2,10.2,22.5l5.2-4.7l-0.5-0.3l0.8-0.7l0.3,0.4
	c1.5-4.4-0.6-12.1-3.1-17.2c-3.4-2.3-7.3,0.2-10.5-2c-0.5-4.7-3.4-7-6.7-9.9c-2.3-1.8-5.4,0.6-8.1,0.4L1924.9,606.8L1924.9,606.8z
	 M1943.2,428.9c4.8,8,14.2,13,21.6,18.6c6.2,2.8,14.2,3.5,20.7,2c-6.2-5.2-12-10.9-17.2-17.1c-2-2.9-2.5-6.6-5.2-9.2
	C1956.2,424.5,1948.4,424.3,1943.2,428.9z M1951.3,376.6c6.7,8.3,17.1,4.9,26.6,5.2v-1l-14.6-12.2
	C1959.1,369.9,1954.8,373.5,1951.3,376.6L1951.3,376.6z M1682.5,238.9l8.4,26.3c-0.2-14.9,6.7-27.3,5.3-42.5l6.2-9.4l-13.3,4.1
	C1685.7,224.2,1682.7,230.9,1682.5,238.9z M1688.2,193.4l11.5-6.7v-17.1c-4.8,2.9-7.4,7.9-11.2,11.8L1688.2,193.4z"/>
<path class="st1" d="M1925,219.9c-2.8,3.7-7,4.5-10.5,5.2c6.1-11.2,9-26.9,4.2-39.5c3.2-1.2,6.7-1.7,9.8-3.5l-0.3-0.3l8.1-7
	c10.6-7.3,6.6-21.2,10.5-31.5c-5.2-8.2-6.8-18.1-14.4-25l0.5-0.3c-6-7.6-16.8-6.7-25-10.5c-10.8-3.7-19.1,3.8-26.9,8.8
	c-3.4,0.6-1.3,5-5,4.8c-2,5.4-4.5,11.2-6,17.2c-14.5-2.1-30.1-0.4-41.6,7.7c-6.2-4.5-13.6-5.4-20.7-7.5c-5.3-1-11.2,0.9-15-2
	c-5.5-6.3-6.7-17.7-16.2-19.3c-3.4-1.2-4.1-4.8-4.1-8c-6.3-1-11.9-3.9-17.9-5.3c-9.4-4.2-16.8,2.5-23.8,7c-3.1,1.3-6.6,1.7-9.5,3.5
	c-5.3,8.2-10.2,16.5-13.6,25.6c1,7.5,4.2,14,8.1,20.3c3.4,9.5,13.8,16.9,22.8,20.7c-4.2,15.1-4.2,31.1,0,46.3c0,0-0.2,0.2-0.2,0.2
	c0,0.1-0.5,0.5-0.5,0.5c-1.4,0-2.9,0.3-4-0.5h-0.2c2.1,13.9,8.6,26.2,19.3,36.6c3.8,1.3,2.9,5.9,4.5,8.8c1,1.3,1.2,4.1,0.8,5.3
	c-21.5-0.7-42.7,4.6-61.3,15.3c-4.7,2.4-2.6,8.8-3.1,13.3c12.9-8.5,26.7-14.7,42-17.5c6.6-0.4,14-2,20.3-0.3l0.7,12.6
	c-17.4,9-36.4,14.3-51.2,29.2c0.3,4.5-0.6,9.8,0.7,13.6l13.3-10.8c12.9-9.8,26.3-18.1,41-23.5c4,4.6,8.1,9.7,13.3,12.6
	c8.8-5.7,18.5-9.9,28.7-12.6c5.4-3.2,14-0.3,17.6-6.7l2.5-13.3c-0.4-0.3-0.7-0.9-1.5-0.7c-6.8-3.9-11.4-10.8-10.8-18.8
	c-2.4,1.2-5,1.9-7.7,2c-2.3-0.6-4.5-1.2-5.5-3.5c-0.1-2.9-1.6-7.3,1.3-9.5c9.5-5.9,21.8-6.1,33.7-5.3c8.9,1.2,21.8,0.7,24.9,11.2
	c-0.5,3.1-0.2,6.4-3.3,8.5c-3.2,1.7-6.8-0.2-9.8-1.5c-2.3,7.2-6.3,15.2-14.3,17.6l1,8.5c1,3.8,1.3,10.1,7.3,8.8
	c13.9,3.4,26.1,10.5,38.2,18.2c4.1-4.1,7.3-8.8,10.2-13c21.6,7.3,40.3,23.5,58.1,38.6l0.7-12.3c-16.9-15-35.8-25.7-55.4-34
	c0.8-3.9,1.6-7.8,1.8-12c23.2,1.3,45.2,8.5,64.4,19.7l-0.3-10.5c-20.1-10.8-42.2-17.9-66.2-18.2c-0.8-1.4-1.2-2.9-1-4.5
	c11.7-1.9,20-14,22.8-24.5c6-6.8,14.6-14.3,12.6-24.5c0.2-0.9,0.5-1.7,0.9-2.6C1925.2,225,1925.8,222.3,1925,219.9L1925,219.9z"/>
<path class="st1" d="M1945.3,257.5l12-3.8l1.3-6.7c3.4-9.8-3.8-17.1-7.3-24.9L1945.3,257.5L1945.3,257.5z M1975.5,303.7
	c5.7,6.3,11.2,16.4,21.3,13.3c-0.7-4.2-3.1-7.8-4.5-11.5c-2.6-3.1-3.5-11.8-8.8-8.8c-4-2.6-5-7-7.5-10.5
	C1974.9,291.6,1975.6,298.3,1975.5,303.7L1975.5,303.7z M1977.5,346.5c2.2,3.1,2.8,7,5,9.8c4,2.6,9.8,2.2,14.6,1.7
	c4.4-1,7.2,3.8,11.2,1c-5.1-3.2-8.2-9-13-13.3C1989.6,341.3,1983.5,345.2,1977.5,346.5L1977.5,346.5z M1985.3,414.4
	c10.1,6,22.9,11.8,36.3,9.8c1.5-0.7,4-0.6,4.3-2.3c-8.3-2.9-17.1-11.2-25.8-13c-4.8-7.4-11.1,1.9-17.2,1.3
	C1982.9,411.9,1984.7,413.2,1985.3,414.4L1985.3,414.4z M2015.6,543.3l2.2,4.7c2.2,15.2,11.8,29.2,6.6,45.8
	c4.4,3.1,5.7,8.2,8.5,12.3h0.7c3.4-12.7,1-25.8-0.7-38.6C2034.1,556.1,2022.5,549.3,2015.6,543.3L2015.6,543.3z M2018.1,393.8
	c7.6,5.9,19.7,6.4,28.5,3.5c-5.5-3.1-11.6-6.4-16.2-10.5L2018.1,393.8L2018.1,393.8z M2054.2,438.6c-0.7,6.1,3.4,11.2,7.7,14.3
	c1.6-3.6,4.2-6.7,4.5-10.8c-1.4-6.5-5.1-12.3-10.5-16.2C2054.9,430,2053.7,434,2054.2,438.6L2054.2,438.6z M2054.6,505.2
	c-1,6.8,6.6,7.8,9.8,11.5c2.6,3.2-1.8,5.4-1.8,8.5c5.5,7.1,8.8,15.3,8.8,24.8c2.2-8.9,5.5-17.3,6.7-26.6c-0.6-6.4-10.8-5.1-9.2-12.2
	c2.9-7.3-0.6-14.5-2.5-21.1c-0.6-1-1.9-3-3-2.4C2060.7,493.7,2054.2,497.9,2054.6,505.2L2054.6,505.2z M2074.6,470.5l7.6,14.7
	c3.4-0.4,5.5-3.7,8.2-6c2-6.1-3.4-10.1-5-15.1c-1.3-3.5,0-8.2-2.5-11.2c-1.9-1.2-4.1-3.1-6.2-2.5L2074.6,470.5L2074.6,470.5z
	 M2084.4,431.6c6,3.7,12.9,8.9,16.1,15.4c5.1,14.9,13.3,28.3,19.3,42.8c2.2,10.1,4,19.1,6.7,29c1,2.7,0.5,7.7,4.5,7.3
	c1.2-11.1,3.4-21.8,3.5-33.3c-3.7-4.8-8.4-6.8-13-9.8v-1c0.6-2.4,2.7-5.4,5.7-4.9c1.3-1.5,5.2-2.9,3.5-5.5
	c-7.6-7.6-7.2-20.7-19.3-23c-4.2-1.7-5.2-6.1-5.7-10.2C2100,433.4,2091.5,431.8,2084.4,431.6L2084.4,431.6z M2091.4,510.8
	c7.4,6.8,4.8,16.8,4.2,26c-1.2,5.6,5.9,2.3,8.1,5.3c4.5,6.7,1.9,16.5,0.3,23.8c3.9-6,8.5-11.3,11.5-17.8c-0.1-2.5,3.1-3.7,2.9-6.7
	c1.3-4.2-3.6-2.3-5.7-2.7c-1.7-0.5-3.7-1.6-3-4c3.8-7.3,0.3-16.1-1.2-23.3c-1.7-6,0.7-14-2-19.3
	C2101.8,498.4,2087.9,499.8,2091.4,510.8L2091.4,510.8z M2105,407.1c13,13.2,22.5,26.4,36.5,39.1c0.3-5.7-0.5-11-0.7-16.5
	c-2.1-3.9-5.9-6.8-9.1-9.8C2121.3,418.9,2115.9,404.9,2105,407.1z M2139,476.7c0.3,1.3,0.9,2.5,1.5,3.8c5.7,9.3,11.1,19,15.1,29
	c-1.2-10.8,6.1-24.2-3.5-32.6c-1.3-3.5-5.7-2.3-8.5-2.1L2139,476.7L2139,476.7z M2174,583.3c4.1,1.9,9.4-1.5,13.3-3.8
	c3.7-0.9,6.7,1.2,9.5,3.1c1.2,2.3,0,4.5,0.5,6.7c8.8,2.5,17.4,5.7,25.1,10.8l2.5-2.5c0.6-6.3-4.4-10.8-9-14.3
	c-3.1-1.7-7.6-0.7-9.8-3.5c1.5-2.3,1.5-5.9,1.3-8.5c-4.8,0-7.9-1.5-11.8-3.8c-2.5-0.7-4.7-2.8-6.7,0
	C2181.5,572.5,2181,579.8,2174,583.3L2174,583.3z M2184.2,399.6c3.7-1,7.5-2.1,10.5-4.7c9.8-8.9,23.9-2.9,35.4-3
	c-2.3-4-5-7.8-8.1-11.3c-4.1-1.6-7.9-3.5-12.6-3.5c-9.9-5.8-16.6,3.9-24.3,8.8C2183.2,389.8,2182.2,395.7,2184.2,399.6L2184.2,399.6
	z M2184.5,429.7c0-0.4,0-0.9,0.5-1c1.3,1.2-0.2,3.9,2,4.5c3.8-1.9,7.3-4.5,10.8-7c9.8,0,15.7-9.5,25.3-9.5c16.1,2.9,32,6.1,46,14
	c-1-9.5-9.2-18.1-17.5-22.3c-4.7-1.6-8.3,0.9-11.7,3.5c-9.8,6.2-4.7-8.9-11.5-9.2c-8.9,2.8-18.1,5.9-28,5c-5.9,2.2-9.9,7.6-16.5,7
	C2183.5,419.5,2182.8,425.3,2184.5,429.7z M2191.3,462.2c3.1,3.2,8.2,2.6,12.6,3.2l12.7-5c0.2-2.3-3.8-2.9-2.9-5.5
	c3.5-3.9,8.3-1.2,12.7-2.8c6.1-0.9,12.4-7,18.6-2.5c-0.2,0.7,0.3,1.7-0.3,2.5c-1.9,4.5,1.3,7.3,4.8,9c7.2,1.3,13.9,7.9,21,4.9
	c-0.7-6-2.3-11.5-3.8-17.2c-6-1-10.2-6-15.8-8.1c-2.5,2.3-5.7,4.1-8.8,3.8c-11.3-2.6-24.7-9.6-36.1-2.5c-4.1,5-11.4,3.5-16.9,5.7
	C2189.2,452.8,2190,457.6,2191.3,462.2L2191.3,462.2z M2196.1,549c-0.9,2.5-3.4,6.6,1.2,7.7c9.3,0.3,21.3-4.5,28.6,2.8
	c2.5,1.9,1.3,5.9,1.2,8.3l12.2,10.2c1.2-6.2,3.4-11.7,3.5-18.3c-1-4.7-3.4-9.2-7.4-12.2c-8.1,0-12.7-9.4-21.4-8.3c-4.5-1-8.4,3-13,3
	C2199,544.4,2197.8,546.8,2196.1,549L2196.1,549z M2199.6,480.2c1.9,3.9,4.1,10.4,7.7,10.8c8.6-3.8,21.2-6.1,30.8-2
	c3.2,0.6,3.2,4.2,2.5,6.6c4.9,2.9,10.9,5.3,16.2,8.5l-1.5-8.8c-0.3-9.5-12.2-10.4-13-19.7c-9.8-3.2-20.8-4.2-31.1-1.7
	c-3.4,3.1-8.2,2.7-12.3,3.5C2198.7,478.4,2199.4,479.2,2199.6,480.2L2199.6,480.2z M2202.1,527.5c5.7-1.6,9.3-7.9,15.5-8.5
	c9.3,0.2,17.6,4,23.5,12c3.5,2.3,2.8,8.3,7.3,8.3c-1.3-7.1,1-13.7,0.7-21c-6.1-10.2-21.3-2.3-27-14.3l-10.8,0.7
	c-7.8,1.9-5.7,11-6.7,17.1C2203.7,523.7,2201.9,525.2,2202.1,527.5L2202.1,527.5z M2255.7,591.4c4.5,9,14.4,15.9,15.4,26.3
	c2.3-2.8,4-6,5.5-9c-0.2-2.9-3.5-2.9-4.8-5.3c-1.3-3.8,0.7-7.1,1.3-10.5c-1.9-5.4-6.4-10.5-11.5-13.7L2255.7,591.4L2255.7,591.4z
	 M2273.6,568.3l10.5,14.3c4.5-7.2,4.5-17.7,2.8-26.3c-1-1.6-2.9-4.2-5.5-3.1C2277.4,557.3,2276.8,563.6,2273.6,568.3L2273.6,568.3z
	 M2230.8,168.7c3.8,1.9,7.5,3.7,12,3.9c3-1.6,7-2.8,10.8-1.7c5.4,3.5,12-0.7,18.3-0.4c-5.5-5.2-11.8-8.5-18.3-11.5
	C2245.4,160.6,2238.9,166.5,2230.8,168.7z M2287.9,182.4c7.7,0.7,13.3,7.6,18.6,13.3c6.6,1,11.5,5.7,15.4,10.5l-2.5-7.7
	c-1.7-7.8-6.6-13.7-11.5-19.9C2300.9,179,2294,179.6,2287.9,182.4L2287.9,182.4z"/>
<path class="st2" d="M1743,118.3l4.3,0.4c11.4,5.7,29.7,8.6,30.8,25.1c-11.5,4.5-22.7,10.7-31.8,20c-7-7.1-21.2-3.2-23.5-15.8
	C1724.9,136.3,1729.2,121.4,1743,118.3L1743,118.3z M1754,192.4c13.3-1.2,26.1,0.7,39.9-0.5c3.4,1.5,6.8,4.4,8.4,7.7
	c-0.4,15.8-5.2,30.8-5.9,47c-6,2.5-11.9,7.5-13.3,14c-5.4,1.6-10.2,4.8-15.5,7.3c-2.3-4.9-1.9-12.4,2.2-16.5
	c5.7-8,20.5-6.1,19.3-18.8c3.8-6.1,0.2-14,0.3-20.4c-1.5-4.9-2.9,1.6-5.3,1.5c-4.6,1-9.4,1.3-13.6-1c-3.1-3.2-6.8-5.9-7.7-10.2
	c-4.1-2.1-8.9-5.3-10.9-9.5L1754,192.4L1754,192.4z M1770.1,287.5c6.2,0.9,12.8-1.9,18.3,1.2c-1.2,2-4.3,2.9-6.7,3.5l-9.8,4.5
	C1768.2,295.9,1770.2,290,1770.1,287.5z M1795.6,165.6c6.3-2,13-6.3,19.7-4.2c-4.8,4.8-8.6,11.1-12.2,16.9l-20-0.4
	C1785.3,172.6,1790.8,168.3,1795.6,165.6L1795.6,165.6z M1854.2,160.8c8.3-1.5,7.9,9.3,15.4,9.8c1.3,1.7,3.2,3.4,2.5,6
	c-4.4,1.7-10.8,0.9-15.8,2c-6.6-3.6-2.3-15-12.7-14.3c-0.6-0.9-1.8-2.6-0.3-3.2C1846.6,159.9,1850.8,160.4,1854.2,160.8
	L1854.2,160.8z M1848.9,199.9c3.7-5.1,9.2-5.5,14.5-6.6l37.8,0.7c1.6,1.5-1.4,2.8-1.4,4.5c-2.3,2.2-5.7,2.8-7.7,4.8
	c-5,0.1-4.5,6-8.1,8.5c-5.4,5.4-13.3,2.9-19.6,2.1c-2.2-1.6-4.7-3.8-5.7-6.3l-1.8,1.7c2.2,8.2,1.6,17.3,3.2,25.6l9,6
	c0.2,13.4,15.9,9.8,22.8,17.2c-1.6,4.8-4.8,8.9-8.3,13c-5.3-5.1-11.6-8.9-18.6-11.2c-0.6-7.9-9.2-12.5-14-16.5
	c-1.3-14.3-1.6-28.9-3.9-42.8L1848.9,199.9L1848.9,199.9z M1862.6,290h17.6l-2.2,9.2l-17.6-7.4C1860,290.3,1861.6,289.9,1862.6,290z
	 M1894.2,124.6l13-4.1c7.5,3.6,14.6,7.9,21.3,12.8c5.4,9.9,4.5,23.4,2.1,34.5c-4,4.4-12.6,0-15.8,7h-0.6
	c-4.8-13.7-18.6-26-31.2-32.2C1885,135.5,1887.2,128.7,1894.2,124.6L1894.2,124.6z"/>
</svg>
