<?xml version="1.0" encoding="utf-8"?>
<!-- Generator: Adobe Illustrator 21.1.0, SVG Export Plug-In . SVG Version: 6.00 Build 0)  -->
<svg version="1.1" id="Layer_1" xmlns="http://www.w3.org/2000/svg" xmlns:xlink="http://www.w3.org/1999/xlink" x="0px" y="0px"
	 viewBox="0 0 983.8 779" style="enable-background:new 0 0 983.8 779;" xml:space="preserve">
<style type="text/css">
	.st0{fill:#00A1E0;}
	.st1{fill:#FFFFFF;}
</style>
<path class="st0" d="M409.4,120.3c31.7-33.1,75.9-53.6,124.8-53.6c64.9,0,121.6,36.2,151.8,90c26.2-11.7,55.2-18.2,85.8-18.2
	c117.1,0,212.1,95.8,212.1,213.9c0,118.2-95,214-212.1,214c-14,0-28-1.4-41.8-4.2c-26.6,47.4-77.2,79.4-135.3,79.4
	c-24.3,0-47.3-5.6-67.8-15.6c-26.9,63.4-89.7,107.8-162.8,107.8c-76.2,0-141.1-48.2-166-115.8c-10.9,2.3-22.2,3.5-33.7,3.5
	C73.5,621.5,0,547.3,0,455.6c0-61.4,33-115,82.1-143.7C72,288.7,66.4,263,66.4,236c0-105.4,85.6-190.8,191.1-190.8
	C319.4,45.2,374.5,74.7,409.4,120.3"/>
<path class="st1" d="M142.5,402.3c-0.6,1.6,0.2,1.9,0.4,2.2c1.8,1.3,3.7,2.3,5.6,3.4c10,5.3,19.5,6.9,29.4,6.9
	c20.2,0,32.7-10.7,32.7-28v-0.3c0-16-14.1-21.8-27.4-26l-1.7-0.6c-10-3.3-18.6-6.1-18.6-12.6v-0.3c0-5.6,5-9.8,12.9-9.8
	c8.7,0,19,2.9,25.6,6.6c0,0,1.9,1.3,2.7-0.6c0.4-1,3.8-10.1,4.1-11c0.4-1.1-0.3-1.9-1-2.3c-7.6-4.6-18.1-7.8-28.9-7.8l-2,0
	c-18.5,0-31.4,11.2-31.4,27.1v0.3c0,16.9,14.2,22.3,27.6,26.1l2.1,0.7c9.7,3,18.1,5.5,18.1,12.4v0.3c0,6.3-5.4,10.9-14.2,10.9
	c-3.4,0-14.3-0.1-26-7.5c-1.4-0.8-2.2-1.4-3.3-2.1c-0.6-0.4-2-1-2.6,0.9L142.5,402.3L142.5,402.3z M437.9,402.3
	c-0.6,1.6,0.2,1.9,0.4,2.2c1.8,1.3,3.7,2.3,5.6,3.4c10,5.3,19.5,6.9,29.4,6.9c20.2,0,32.7-10.7,32.7-28v-0.3c0-16-14.1-21.8-27.4-26
	l-1.7-0.6c-10-3.3-18.6-6.1-18.6-12.6v-0.3c0-5.6,5-9.8,12.9-9.8c8.7,0,19,2.9,25.6,6.6c0,0,1.9,1.3,2.7-0.6c0.4-1,3.8-10.1,4.1-11
	c0.4-1.1-0.3-1.9-1-2.3c-7.6-4.6-18.1-7.8-28.9-7.8l-2,0c-18.5,0-31.4,11.2-31.4,27.1v0.3c0,16.9,14.2,22.3,27.6,26.1l2.1,0.7
	c9.7,3,18.1,5.5,18.1,12.4v0.3c0,6.3-5.5,10.9-14.2,10.9c-3.4,0-14.3-0.1-26-7.5c-1.4-0.8-2.3-1.4-3.3-2.1c-0.4-0.2-2.1-0.9-2.7,0.9
	L437.9,402.3L437.9,402.3z M639.6,368.4c0,9.8-1.8,17.5-5.4,22.9c-3.5,5.4-8.9,8-16.4,8c-7.5,0-12.8-2.6-16.3-8
	c-3.5-5.4-5.3-13.1-5.3-22.9c0-9.8,1.8-17.4,5.3-22.8c3.5-5.3,8.8-7.9,16.3-7.9c7.5,0,12.9,2.6,16.4,7.9
	C637.8,351,639.6,358.7,639.6,368.4 M656.5,350.3c-1.7-5.6-4.2-10.5-7.7-14.6c-3.4-4.1-7.8-7.4-12.9-9.8c-5.1-2.4-11.2-3.6-18-3.6
	c-6.8,0-12.9,1.2-18.1,3.6c-5.2,2.4-9.5,5.7-12.9,9.8c-3.4,4.1-6,9.1-7.7,14.6c-1.6,5.6-2.5,11.6-2.5,18.1s0.8,12.6,2.5,18.1
	c1.7,5.6,4.2,10.5,7.7,14.6c3.4,4.1,7.8,7.4,12.9,9.8c5.2,2.3,11.2,3.5,18.1,3.5c6.8,0,12.9-1.2,18-3.5c5.1-2.3,9.5-5.6,12.9-9.8
	c3.4-4.1,6-9,7.7-14.6c1.7-5.6,2.5-11.7,2.5-18.1S658.1,355.9,656.5,350.3 M794.8,396.7c-0.6-1.6-2.1-1-2.1-1
	c-2.5,0.9-5.1,1.8-7.8,2.2c-2.8,0.4-5.9,0.7-9.2,0.7c-8.2,0-14.6-2.4-19.3-7.2c-4.7-4.8-7.3-12.5-7.2-23c0-9.5,2.3-16.7,6.5-22.2
	c4.1-5.4,10.4-8.2,18.7-8.2c7,0,12.2,0.8,17.8,2.6c0,0,1.3,0.6,2-1.2c1.5-4.1,2.6-7,4.1-11.5c0.4-1.3-0.6-1.8-1-2
	c-2.2-0.9-7.3-2.2-11.2-2.8c-3.6-0.6-7.9-0.9-12.6-0.9c-7.1,0-13.4,1.2-18.8,3.6c-5.4,2.4-10,5.7-13.6,9.8
	c-3.6,4.1-6.4,9.1-8.2,14.6c-1.8,5.6-2.7,11.7-2.7,18.1c0,14,3.8,25.3,11.2,33.5c7.5,8.3,18.7,12.5,33.3,12.5
	c8.6,0,17.5-1.8,23.9-4.3c0,0,1.2-0.6,0.7-2L794.8,396.7L794.8,396.7z M824.3,359.1c0.8-5.4,2.3-9.9,4.6-13.5
	c3.5-5.3,8.8-8.3,16.3-8.3c7.5,0,12.4,2.9,16,8.3c2.4,3.5,3.4,8.2,3.8,13.5H824.3L824.3,359.1z M881,347.2c-1.4-5.4-5-10.8-7.3-13.3
	c-3.7-4-7.3-6.7-10.8-8.3c-4.7-2-10.2-3.3-16.3-3.3c-7.1,0-13.6,1.2-18.8,3.7c-5.3,2.5-9.7,5.8-13.1,10c-3.5,4.2-6.1,9.2-7.7,14.8
	c-1.7,5.6-2.5,11.7-2.5,18.2c0,6.6,0.9,12.7,2.6,18.2c1.7,5.6,4.5,10.4,8.3,14.5c3.7,4.1,8.6,7.3,14.3,9.5
	c5.7,2.2,12.7,3.4,20.7,3.3c16.5-0.1,25.1-3.7,28.7-5.7c0.6-0.3,1.2-1,0.5-2.7l-3.7-10.4c-0.6-1.6-2.1-1-2.1-1
	c-4.1,1.5-9.9,4.2-23.4,4.2c-8.8,0-15.4-2.6-19.5-6.7c-4.2-4.2-6.3-10.3-6.6-19l57,0.1c0,0,1.5,0,1.7-1.5
	C882.7,371.1,884.6,360,881,347.2 M367.6,359.1c0.8-5.4,2.3-9.9,4.6-13.5c3.5-5.3,8.8-8.3,16.3-8.3c7.5,0,12.4,2.9,16,8.3
	c2.3,3.5,3.4,8.2,3.8,13.5H367.6z M424.3,347.2c-1.4-5.4-5-10.8-7.3-13.3c-3.7-4-7.3-6.7-10.8-8.3c-4.7-2-10.2-3.3-16.3-3.3
	c-7.1,0-13.6,1.2-18.8,3.7c-5.3,2.5-9.7,5.8-13.1,10c-3.5,4.2-6.1,9.2-7.7,14.8c-1.7,5.6-2.5,11.7-2.5,18.2c0,6.6,0.9,12.7,2.6,18.2
	c1.7,5.6,4.5,10.4,8.3,14.5c3.7,4.1,8.6,7.3,14.3,9.5c5.7,2.2,12.7,3.4,20.7,3.3c16.5-0.1,25.1-3.7,28.7-5.7c0.6-0.3,1.2-1,0.5-2.7
	l-3.7-10.4c-0.6-1.6-2.2-1-2.2-1c-4.1,1.5-9.9,4.2-23.4,4.2c-8.8,0-15.4-2.6-19.5-6.7c-4.2-4.2-6.3-10.3-6.6-19l57,0.1
	c0,0,1.5,0,1.7-1.5C426,371.1,428,360,424.3,347.2 M244.3,396.4c-2.2-1.8-2.5-2.2-3.3-3.4c-1.1-1.8-1.7-4.2-1.7-7.4
	c0-5,1.7-8.6,5.1-11c0,0,4.9-4.3,16.5-4.1c8.2,0.1,15.5,1.3,15.5,1.3v25.9h0c0,0-7.2,1.6-15.4,2
	C249.4,400.5,244.3,396.4,244.3,396.4 M267,356.4c-2.3-0.2-5.3-0.3-8.9-0.3c-4.9,0-9.6,0.6-14,1.8c-4.5,1.2-8.5,3.1-11.9,5.5
	c-3.4,2.5-6.3,5.7-8.3,9.4c-2,3.8-3,8.2-3,13.1c0,5,0.9,9.4,2.6,13c1.7,3.6,4.2,6.6,7.4,8.9c3.2,2.3,7.1,4,11.6,5
	c4.5,1,9.5,1.5,15.1,1.5c5.8,0,11.7-0.5,17.3-1.4c5.6-1,12.5-2.3,14.4-2.8c1.3-0.3,2.7-0.7,4-1c1.4-0.3,1.3-1.9,1.3-1.9l0-52.1
	c0-11.4-3.1-19.9-9.1-25.2c-6-5.2-14.8-7.9-26.2-7.9c-4.3,0-11.2,0.6-15.3,1.4c0,0-12.5,2.4-17.6,6.4c0,0-1.1,0.7-0.5,2.3l4,10.8
	c0.5,1.4,1.9,0.9,1.9,0.9s0.4-0.2,0.9-0.5c11-6,24.8-5.8,24.8-5.8c6.2,0,10.9,1.2,14.1,3.7c3.1,2.4,4.7,6,4.7,13.6v2.4
	C271.5,356.8,267,356.4,267,356.4 M726.9,327c0.4-1.3-0.5-1.9-0.9-2c-1-0.4-5.8-1.4-9.6-1.6c-7.2-0.4-11.1,0.8-14.7,2.4
	c-3.5,1.6-7.5,4.2-9.6,7.1v-6.9c0-1-0.7-1.7-1.6-1.7h-14.6c-1,0-1.6,0.8-1.6,1.7v85.1c0,1,0.8,1.7,1.7,1.7h15c1,0,1.7-0.8,1.7-1.7
	v-42.5c0-5.7,0.6-11.4,1.9-15c1.2-3.5,2.9-6.4,5-8.4c2.1-2,4.5-3.4,7-4.2c2.6-0.8,5.6-1.1,7.7-1.1c3,0,6.3,0.8,6.3,0.8
	c1.1,0.1,1.7-0.5,2.1-1.5C723.6,336.3,726.4,328.5,726.9,327"/>
<path class="st1" d="M586.3,287.6c-1.8-0.6-3.5-0.9-5.6-1.3c-2.2-0.4-4.8-0.6-7.7-0.6c-10.3,0-18.4,2.9-24.1,8.7
	c-5.7,5.7-9.5,14.4-11.5,25.9l-0.7,3.9h-12.9c0,0-1.6-0.1-1.9,1.7l-2.1,11.9c-0.2,1.1,0.3,1.8,1.8,1.8h12.6l-12.8,71.4
	c-1,5.7-2.1,10.5-3.4,14.1c-1.2,3.5-2.5,6.2-4,8.1c-1.5,1.9-2.8,3.2-5.2,4c-2,0.7-4.2,1-6.7,1c-1.4,0-3.2-0.2-4.6-0.5
	c-1.3-0.3-2.1-0.6-3.1-1c0,0-1.5-0.6-2.1,0.9c-0.5,1.2-3.8,10.5-4.2,11.6c-0.4,1.1,0.2,2,0.9,2.3c1.7,0.6,2.9,1,5.2,1.5
	c3.2,0.7,5.8,0.8,8.4,0.8c5.2,0,10-0.7,14-2.2c4-1.4,7.5-4,10.5-7.3c3.3-3.7,5.4-7.5,7.4-12.8c2-5.2,3.7-11.6,5-19.1l12.9-72.7h18.8
	c0,0,1.6,0.1,1.9-1.7l2.1-11.9c0.1-1.1-0.3-1.8-1.9-1.8H555c0.1-0.4,0.9-6.8,3-12.9c0.9-2.6,2.6-4.7,4-6.1c1.4-1.4,3-2.4,4.8-3
	c1.8-0.6,3.9-0.9,6.1-0.9c1.7,0,3.4,0.2,4.7,0.5c1.8,0.4,2.5,0.6,2.9,0.7c1.9,0.6,2.1,0,2.5-0.9l4.4-12
	C587.8,288.3,586.7,287.7,586.3,287.6 M331.6,410.9c0,1-0.7,1.7-1.6,1.7h-15.1c-1,0-1.6-0.8-1.6-1.7V289.2c0-1,0.7-1.7,1.6-1.7h15.1
	c1,0,1.6,0.8,1.6,1.7V410.9z"/>
</svg>
