<svg id="Layer_1" data-name="Layer 1" xmlns="http://www.w3.org/2000/svg" viewBox="0 0 200 200"><defs><style>.cls-1{fill:#00a7e1;}</style></defs><title>Artboard 1</title><path class="cls-1" d="M179.93,157.44l-38.88-38.8a74.74,74.74,0,0,1-22.42,22.42l38.8,38.88a15.9,15.9,0,0,0,22.49-22.49Z"/><path class="cls-1" d="M142.22,78.78a63.4,63.4,0,1,0,0,.07S142.22,78.8,142.22,78.78ZM78.78,126.34a47.56,47.56,0,1,1,47.56-47.56A47.56,47.56,0,0,1,78.78,126.34Z"/><path class="cls-1" d="M41.86,78.78H52.44A26.45,26.45,0,0,1,78.85,52.36V41.86A37,37,0,0,0,41.86,78.78Z"/></svg>