<?xml version="1.0" encoding="utf-8"?>
<!-- Generator: Adobe Illustrator 21.1.0, SVG Export Plug-In . SVG Version: 6.00 Build 0)  -->
<svg version="1.1" id="Layer_1" xmlns="http://www.w3.org/2000/svg" xmlns:xlink="http://www.w3.org/1999/xlink" x="0px" y="0px"
	 viewBox="0 0 299 299" style="enable-background:new 0 0 299 299;" xml:space="preserve">
<style type="text/css">
	.st0{fill:#FFFFFF;}
</style>
<g>
	<path class="st0" d="M148.1,292C69.5,292,5.6,228.1,5.6,149.5S69.5,7,148.1,7c22.1,0,43.2,4.9,62.8,14.6c3.5,1.7,4.9,5.9,3.2,9.4
		c-1.7,3.5-5.9,4.9-9.4,3.2C187.1,25.4,168,21,148.1,21C77.2,21,19.6,78.6,19.6,149.5S77.2,278,148.1,278
		c70.9,0,128.5-57.7,128.5-128.5c0-3.9,3.1-7,7-7s7,3.1,7,7C290.6,228.1,226.7,292,148.1,292z"/>
	<path class="st0" d="M141.8,183.7L92.2,134c-2.7-2.7-2.7-7.2,0-9.9c2.7-2.7,7.2-2.7,9.9,0l39.8,39.8L281.5,24.3
		c2.7-2.7,7.2-2.7,9.9,0c2.7,2.7,2.7,7.2,0,9.9L141.8,183.7z"/>
</g>
</svg>
