<svg id="Layer_1" data-name="Layer 1" xmlns="http://www.w3.org/2000/svg" viewBox="0 0 200 200"><defs><style>.cls-1{fill:#00a7e1;}</style></defs><title>Artboard 1</title><path class="cls-1" d="M118.54,127.47h-37v-17H8.41v50.41a8.5,8.5,0,0,0,8.5,8.5H183.34a8.5,8.5,0,0,0,8.54-8.47V110.51H118.71Z"/><path class="cls-1" d="M183.34,51.8H126.17V33.34c0-3.17-2.06-2.79-2.06-2.79H70.91a2.68,2.68,0,0,0-2.26,2.89V51.8H16.84a8.5,8.5,0,0,0-8.5,8.5V98.24H191.74V60.3A8.5,8.5,0,0,0,183.34,51.8ZM77.5,51.8V37h40V51.8Z"/><rect class="cls-1" x="87.92" y="110.61" width="24.28" height="11.04"/></svg>