<?xml version="1.0" encoding="utf-8"?>
<!-- Generator: Adobe Illustrator 21.1.0, SVG Export Plug-In . SVG Version: 6.00 Build 0)  -->
<svg version="1.1" id="Layer_1" xmlns="http://www.w3.org/2000/svg" xmlns:xlink="http://www.w3.org/1999/xlink" x="0px" y="0px"
	 viewBox="0 0 2500 779" style="enable-background:new 0 0 2500 779;" xml:space="preserve">
<style type="text/css">
	.st0{fill:url(#SVGID_1_);}
	.st1{fill:#FFFFFF;}
	.st2{fill:#FEFEFE;}
	.st3{fill:#FDFDFD;}
	.st4{fill:#FCFCFC;}
	.st5{fill:#FBFBFB;}
	.st6{fill:#FAFAFA;}
	.st7{fill:#F9F9F9;}
	.st8{fill:#F8F8F8;}
	.st9{fill:#F7F7F7;}
	.st10{fill:#F6F6F6;}
	.st11{fill:#F5F5F5;}
	.st12{fill:#F4F4F4;}
	.st13{fill:#F3F3F3;}
	.st14{fill:#F2F2F2;}
	.st15{fill:#F1F1F1;}
	.st16{fill:#F0F0F0;}
	.st17{fill:#EFEFEF;}
	.st18{fill:#EEEEEE;}
	.st19{fill:#EDEDED;}
	.st20{fill:#ECECEC;}
	.st21{fill:#EBEBEB;}
	.st22{fill:#EAEAEA;}
	.st23{fill:#E9E9E9;}
	.st24{fill:#E8E8E8;}
	.st25{fill:#E7E7E7;}
	.st26{fill:#E6E6E6;}
	.st27{fill:#E5E5E5;}
	.st28{fill:#E4E4E4;}
	.st29{fill:#E3E3E3;}
	.st30{fill:#E2E2E2;}
	.st31{fill:#E1E1E1;}
	.st32{fill:#E0E0E0;}
	.st33{fill:#DFDFDF;}
	.st34{fill:#DEDEDE;}
	.st35{fill:#DDDDDD;}
	.st36{fill:#DCDCDC;}
	.st37{fill:#DBDBDB;}
	.st38{fill:#DADADA;}
	.st39{fill:#D9D9D9;}
	.st40{fill:#D61726;}
	.st41{fill:url(#SVGID_2_);}
	.st42{fill:url(#SVGID_3_);}
	.st43{opacity:0.8;}
	.st44{fill:url(#SVGID_4_);}
	.st45{fill:url(#SVGID_5_);}
</style>
<g>
	
		<radialGradient id="SVGID_1_" cx="1500.7313" cy="455.0122" r="123.6" gradientTransform="matrix(2.8439 0 0 -2.8439 -2119.8748 1683.4871)" gradientUnits="userSpaceOnUse">
		<stop  offset="0.841" style="stop-color:#FFFFFF"/>
		<stop  offset="1" style="stop-color:#B3B3B3"/>
	</radialGradient>
	<path class="st0" d="M2499.5,389.5C2499.5,195.3,2341.9,38,2148,38c-194.2,0-351.5,157.3-351.5,351.5S1953.7,741,2148,741
		C2341.9,741,2499.5,583.7,2499.5,389.5L2499.5,389.5z"/>
	<path class="st1" d="M1902.8,235.1c84.7-134.2,263.1-173.8,398.4-88.2c135.4,85.6,176.3,263.6,91.6,397.9
		c-84.7,134.2-263.1,173.8-398.4,88.2S1818.1,369.3,1902.8,235.1L1902.8,235.1z"/>
	<path class="st2" d="M1906.5,235.4c83-131.7,259.4-170.3,393.3-85.6c133.9,84.5,174.6,260.2,91.6,391.9
		c-83,131.7-259.1,169.8-393,85.3C1864.4,542.2,1823.2,366.7,1906.5,235.4L1906.5,235.4z"/>
	<path class="st3" d="M1910.2,235.4c81.3-129.1,255.7-166.9,388.2-83.3s172.9,257.1,91.6,386.2s-254.8,165.8-387.3,82.2
		C1870.1,536.8,1828.6,364.5,1910.2,235.4L1910.2,235.4z"/>
	<path class="st4" d="M1913.9,235.4c79.6-126.3,252-163.5,382.8-80.8c131.1,82.8,171.2,254,91.6,380.2
		c-79.9,126.6-250.8,161.8-381.6,79.1C1875.5,531.4,1834,361.9,1913.9,235.4L1913.9,235.4z"/>
	<path class="st5" d="M1917.3,235.6c78.2-123.7,248.3-160.1,377.9-78.2C2425,239.3,2464.8,408,2386.6,532s-246.6,157.8-376.2,76.2
		C1880.9,526,1839.1,359.4,1917.3,235.6z"/>
	<path class="st6" d="M1921,235.6c76.5-121.1,244.6-156.7,372.5-75.6c128,80.8,167.8,247.4,91.3,368.6
		c-76.5,121.4-242.6,154.1-370.6,73.1C1886.3,520.9,1844.5,356.8,1921,235.6z"/>
	<path class="st7" d="M1924.7,235.6c75.1-118.6,240.9-153.3,367.4-73.4c126.6,79.9,166.1,244.3,91.3,362.9
		c-75.1,118.6-238.3,150.2-365.2,70.2C1891.8,515.5,1849.9,354.5,1924.7,235.6z"/>
	<path class="st8" d="M1928.4,235.6c73.4-116,237.2-149.9,362.3-70.8s164.4,240.9,91,357.2c-73.1,116-234,146.2-359.2,67.1
		C1897.2,510.1,1855.3,352,1928.4,235.6z"/>
	<path class="st9" d="M1932.1,235.9c71.7-113.5,233.5-146.5,357.2-68.3s162.7,237.7,91,351.2s-230.1,142.2-353.8,64
		C1902.8,505,1860.5,349.4,1932.1,235.9L1932.1,235.9z"/>
	<path class="st10" d="M1935.8,235.9c70-110.9,229.8-143,352.1-65.7s161,234.6,91,345.5s-226.1,138.2-348.4,61.1
		C1908.2,499.6,1865.9,346.8,1935.8,235.9z"/>
	<path class="st11" d="M1939.5,235.9c68.5-108.4,226.1-139.6,346.7-63.4c120.9,76.2,159.3,231.2,90.7,339.6
		c-68.5,108.4-221.8,134.5-342.7,58C1913.6,494.2,1871.3,344.6,1939.5,235.9L1939.5,235.9z"/>
	<path class="st12" d="M1943.2,236.2c66.8-105.8,222.1-136.2,341.5-60.9s157.5,228.1,90.7,333.9s-217.8,130.5-337.3,55.2
		C1919.1,488.8,1876.4,342,1943.2,236.2L1943.2,236.2z"/>
	<path class="st13" d="M1946.9,236.2c65.1-103.2,218.4-132.8,336.4-58.3c118,74.5,155.8,224.9,90.7,327.9
		c-65.1,103.2-213.6,126.6-331.6,52C1924.5,483.6,1881.8,339.4,1946.9,236.2L1946.9,236.2z"/>
	<path class="st14" d="M1950.6,236.2c63.4-100.7,214.7-129.4,331.3-55.7s154.1,221.5,90.4,322.2c-63.4,100.7-209.6,122.6-325.9,48.9
		C1930.1,478.2,1887.2,336.9,1950.6,236.2L1950.6,236.2z"/>
	<path class="st15" d="M1954.3,236.5c62-98.1,211-126,326.2-53.5s152.4,218.4,90.4,316.5c-62,98.1-205.3,118.6-320.5,46.1
		C1935.5,472.8,1892.3,334.6,1954.3,236.5z"/>
	<path class="st16" d="M1958,236.5c60.3-95.6,207.3-122.6,321.1-50.9c113.5,71.7,150.7,215,90.4,310.5
		c-60.3,95.6-201.3,114.6-314.8,42.9C1940.9,467.7,1897.7,332.1,1958,236.5L1958,236.5z"/>
	<path class="st17" d="M1961.7,236.5c58.6-93,203.6-119.2,315.7-48.3c112,70.8,149,211.9,90.4,304.9s-197.1,110.9-309.1,40.1
		C1946.4,462.3,1903.1,329.5,1961.7,236.5L1961.7,236.5z"/>
	<path class="st18" d="M1965.4,236.8c57.2-90.4,199.9-115.7,310.5-45.8s147.3,208.7,90.2,298.9c-56.9,90.4-193.1,106.9-303.7,37
		S1908.2,326.9,1965.4,236.8L1965.4,236.8z"/>
	<path class="st19" d="M1969.1,236.8c55.5-87.6,196.2-112.3,305.4-43.5c109.2,68.8,145.6,205.3,90.2,293.2s-188.8,102.9-298,34.1
		C1957.4,451.5,1913.6,324.7,1969.1,236.8L1969.1,236.8z"/>
	<path class="st20" d="M1972.8,236.8c53.7-85,192.5-108.9,300.3-41S2417,398,2363.3,483.3c-53.7,85.3-184.9,99-292.6,31
		C1962.8,446.4,1919.1,322.1,1972.8,236.8L1972.8,236.8z"/>
	<path class="st21" d="M1976.5,237.1c52-82.5,188.8-105.5,295.2-38.4s142.2,199.1,89.9,281.5c-52,82.5-180.6,95-286.9,27.9
		S1924.5,319.5,1976.5,237.1L1976.5,237.1z"/>
	<path class="st22" d="M1980.2,237.1c50.6-79.9,185.1-102.1,289.8-35.8c104.9,66.3,140.5,195.7,89.9,275.9
		c-50.6,79.9-176.6,91.3-281.3,25C1973.7,435.6,1929.6,317,1980.2,237.1z"/>
	<path class="st23" d="M1983.9,237.1c48.9-77.4,181.4-98.7,284.7-33.6c103.5,65.4,138.8,192.5,89.9,269.9s-172.3,87.3-275.9,21.9
		C1979.1,430.5,1935,314.7,1983.9,237.1L1983.9,237.1z"/>
	<path class="st24" d="M1987.6,237.4c47.2-74.8,177.7-95.3,279.6-31c102.1,64.3,137.1,189.4,89.6,264.2
		c-47.2,74.8-168.4,83.3-270.2,19.1C1984.7,425,1940.4,312.1,1987.6,237.4L1987.6,237.4z"/>
	<path class="st25" d="M1991.3,237.4c45.5-72.2,173.8-91.9,274.4-28.4c100.4,63.4,135.4,186,89.6,258.2
		c-45.5,72.2-164.1,79.3-264.5,15.9C1990.1,419.6,1945.5,309.6,1991.3,237.4z"/>
	<path class="st26" d="M1995,237.4c44.1-69.7,170.1-88.4,269.3-25.9c99,62.6,133.7,182.9,89.6,252.5
		c-44.1,69.7-160.1,75.4-259.1,12.8C1995.6,414.2,1950.9,307,1995,237.4L1995,237.4z"/>
	<path class="st26" d="M1998.7,237.6c42.4-67.1,166.4-85,264.2-23.6c97.5,61.7,132,179.7,89.3,246.8c-42.4,67.1-155.8,71.7-253.4,10
		C2001,409.1,1956.3,304.8,1998.7,237.6L1998.7,237.6z"/>
	<path class="st27" d="M2002.4,237.6c40.7-64.6,162.7-81.6,258.8-21s130,176.3,89.3,240.9c-40.7,64.6-151.9,67.7-248,6.8
		C2006.4,403.7,1961.4,302.2,2002.4,237.6z"/>
	<path class="st28" d="M2006.1,237.6c39-62,159-78.5,253.7-18.5c94.7,59.7,128.3,173.2,89.3,235.2s-147.6,63.7-242.3,4
		C2012,398.3,1966.8,299.6,2006.1,237.6L2006.1,237.6z"/>
	<path class="st29" d="M2009.8,237.9c37.5-59.4,155.3-75.1,248.6-15.9c93.3,58.9,126.6,170.1,89.3,229.2
		c-37.5,59.4-143.3,59.7-236.6,0.9C2017.4,393.2,1972.2,297.1,2009.8,237.9L2009.8,237.9z"/>
	<path class="st30" d="M2013.2,237.9c35.8-56.9,151.6-71.7,243.4-13.7c91.9,58,124.8,166.6,89,223.5
		c-35.8,56.9-139.3,55.7-231.2-2.3C2022.9,387.8,1977.4,294.8,2013.2,237.9z"/>
	<path class="st31" d="M2016.9,237.9c34.1-54,147.9-68.3,238.3-11.1s123.1,163.5,89,217.6c-34.1,54.3-135.1,51.8-225.5-5.1
		C2028.3,382.4,1982.8,292.2,2016.9,237.9L2016.9,237.9z"/>
	<path class="st32" d="M2020.6,238.2c32.7-51.5,144.2-64.8,232.9-8.5c89,56,121.4,160.4,89,211.9c-32.7,51.8-131.1,48.1-220.1-8.2
		C2033.7,377,1988.2,289.7,2020.6,238.2z"/>
	<path class="st33" d="M2024.3,238.2c31-48.9,140.5-61.4,227.8-6c87.3,55.2,119.7,157,88.7,206.2c-31,49.2-126.8,44.1-214.4-11.1
		C2039.3,371.9,1993.3,287.1,2024.3,238.2L2024.3,238.2z"/>
	<path class="st34" d="M2028,238.2c29.3-46.4,136.8-58,222.7-3.7s118,153.9,88.7,200.2c-29.3,46.4-122.9,40.1-208.7-14.2
		C2044.7,366.5,1998.7,284.8,2028,238.2z"/>
	<path class="st35" d="M2031.7,238.5c27.6-43.8,133.1-54.6,217.6-1.1s116.3,150.7,88.7,194.5c-27.6,43.8-118.6,36.1-203.3-17.3
		C2050.2,361.1,2004.1,282.3,2031.7,238.5L2031.7,238.5z"/>
	<path class="st36" d="M2035.4,238.5c26.2-41.2,129.4-51.2,212.4,1.4c83,52.3,114.6,147.3,88.4,188.5
		c-26.2,41.2-114.6,32.1-197.6-20.2S2009.5,279.7,2035.4,238.5z"/>
	<path class="st37" d="M2039.1,238.5c24.5-38.7,125.4-47.8,207.3,4c81.6,51.5,112.9,144.2,88.4,182.9s-110.3,28.4-192-23.3
		C2061,350.5,2014.6,277.2,2039.1,238.5L2039.1,238.5z"/>
	<path class="st38" d="M2042.8,238.8c22.8-36.1,121.7-44.4,201.9,6.3c80.2,50.6,111.2,141.1,88.4,177.2s-106.4,24.5-186.6-26.2
		C2066.6,345.1,2020,274.9,2042.8,238.8L2042.8,238.8z"/>
	<path class="st39" d="M2046.5,238.8c21-33.6,118-41,196.8,8.8s109.5,137.6,88.2,171.2c-21,33.6-102.1,20.5-180.9-29.3
		C2072.1,339.7,2025.4,272.3,2046.5,238.8L2046.5,238.8z"/>
	<g>
		<path class="st40" d="M2499.5,389.5C2499.5,195.3,2341.9,38,2148,38c-194.2,0-351.5,157.3-351.5,351.5S1953.7,741,2148,741
			C2341.9,741,2499.5,583.7,2499.5,389.5L2499.5,389.5z"/>
		
			<linearGradient id="SVGID_2_" gradientUnits="userSpaceOnUse" x1="1200.8071" y1="79.5641" x2="1335.3708" y2="271.8935" gradientTransform="matrix(2.8439 0 0 -2.8439 -1458.5571 890.0441)">
			<stop  offset="0" style="stop-color:#DE5146"/>
			<stop  offset="4.800000e-02" style="stop-color:#DC453D"/>
			<stop  offset="0.177" style="stop-color:#D7272C"/>
			<stop  offset="0.253" style="stop-color:#D61726"/>
			<stop  offset="0.419" style="stop-color:#D61C27"/>
			<stop  offset="0.531" style="stop-color:#D8282C"/>
			<stop  offset="0.627" style="stop-color:#DA3936"/>
			<stop  offset="0.714" style="stop-color:#DE5045"/>
			<stop  offset="0.795" style="stop-color:#E36B5B"/>
			<stop  offset="0.871" style="stop-color:#E98B78"/>
			<stop  offset="0.943" style="stop-color:#F0AE9D"/>
			<stop  offset="1" style="stop-color:#F6CEC1"/>
		</linearGradient>
		<path class="st41" d="M2481.6,390.4c0-184.3-149.3-333.6-333.9-333.9c-184.3,0-333.9,149.3-333.9,333.6s149.3,333.9,333.6,333.9
			C2332,724.2,2481.6,574.9,2481.6,390.4L2481.6,390.4z"/>
	</g>
	<g>
		<path class="st40" d="M1265.8,375.6c0,100.4-71.1,174.6-171.5,174.6c-102.4,0-172.1-71.1-172.1-174.6
			c0-97.8,68.5-174.6,172.1-174.6C1194.7,201,1265.8,275.2,1265.8,375.6L1265.8,375.6z M1177.1,375.6c0-58.6-22.8-110.6-82.8-110.6
			c-60.3,0-83.3,52-83.3,110.6s23.3,110.6,83.3,110.6C1154.6,486.2,1177.1,434.1,1177.1,375.6L1177.1,375.6z M662.1,344.6
			c-4.3-45.5-20.8-81.9-48.6-106.6c-26.7-23.9-62.8-36.7-107.5-36.7c-32.7,0-74.2,11.4-104.9,36.4c-36.4,29.9-64.6,76.8-64.6,139.9
			c0,54.3,17.6,98.4,49.5,128c31.3,29,75.1,44.9,130,44.9c44.1,0,97-16.5,119.7-30.7c8-4.8,10.5-7.1,8.5-15.1l-14.2-40.4
			c-1.7-6.5-9.1-8.2-15.1-5.4c-10,4.8-17.3,8.8-27.6,12.5c-19.6,7.4-40.1,12.2-59.4,12.2c-41,0-64-11.1-81.9-31.6
			C434.6,439,428,422.5,426,403.4h225.2c8.2,0,11.9-5.7,11.9-15.4v-16.2C663.2,364.2,662.6,352,662.1,344.6L662.1,344.6z
			 M581.3,343.1H425.7c1.7-11.4,4.8-21.9,10-32.1c13.9-27.9,40.4-45.8,73.1-45.8c44.9,0,72.5,30.4,72.5,75.9V343.1z M743.1,249.3
			c25.6-33,65.1-47.8,130.2-47.8c15.4,0,34.1,1.7,45.8,4.6c7.7,1.7,8.8,8,7.4,15.6l-7.4,37.8c-1.7,7.1-3.7,9.1-9.4,9.1
			c-0.9,0-2.6-0.3-4.6-0.3c-5.4-0.6-20.8-2.3-27-2.3c-32.4,0-47.8,8-59.2,20.5c-13.4,14.2-13.9,35.5-13.9,73.7v168.6
			c0,11.1-4.8,17.3-16.8,17.3h-51.5c-11.1,0-15.6-5.4-16.8-17.3V363.3C720.1,302.5,723.5,274.3,743.1,249.3L743.1,249.3z
			 M166.1,319.3c11.7-11.9,38.4-45.2,68.3-101.5c4.8-9.7,9.4-11.9,16.2-11.9H306c4.8,0,10.8,2.3,7.7,11.9
			c-21.9,65.1-72.2,122.3-99.8,152.1c30.1,28.7,83.9,96.7,109.2,163c2.3,6,1.1,12.8-11.4,12.8h-66.5c-6.8,0-12.2-0.6-16.8-11.9
			c-16.5-40.7-42.1-83.6-71.4-111.8c-31.9,33.8-56.3,75.6-72.8,112c-4,8.8-8,11.9-16.8,11.9H6.8c-4,0-8.2-4.8-5.4-11.9
			c17.9-49.5,54-111.2,105.5-157.5C66.6,327.5,27.6,268.1,12.2,218c-2.3-7.7,1.7-12.2,7.4-12.2H91c7.7,0,11.7,3.1,15.6,11.9
			C123.7,258.7,147.9,297.6,166.1,319.3L166.1,319.3z M1441.3,319.3c11.7-11.9,38.4-45.2,68.3-101.5c4.8-9.7,9.4-11.9,16.2-11.9
			h55.5c4.8,0,11.1,2.3,7.7,11.9c-21.9,65.1-72.2,122.3-99.8,152.1c30.1,28.7,83.9,96.7,109.2,163c2.3,6,1.1,12.8-11.4,12.8h-66.3
			c-6.8,0-12.2-0.6-16.8-11.9c-16.5-41-42.1-83.9-71.4-112c-31.9,33.8-56.3,75.6-72.8,112c-4,8.8-8,11.9-16.8,11.9h-60.6
			c-4,0-8.2-4.8-5.4-11.9c17.9-49.5,54-111.2,105.5-157.5c-40.4-48.9-79.3-108.4-94.7-158.4c-2.3-7.4,1.7-11.9,7.4-11.9h71.4
			c7.7,0,11.7,3.1,15.6,11.9C1399.2,258.7,1423.1,297.6,1441.3,319.3L1441.3,319.3z"/>
	</g>
	<g>
		
			<radialGradient id="SVGID_3_" cx="1556.2932" cy="463.9802" r="176.572" gradientTransform="matrix(2.8439 0 0 -2.8439 -2119.8748 1683.4871)" gradientUnits="userSpaceOnUse">
			<stop  offset="0" style="stop-color:#FFFFFF"/>
			<stop  offset="0.178" style="stop-color:#FCFCFC"/>
			<stop  offset="0.319" style="stop-color:#F2F2F2"/>
			<stop  offset="0.565" style="stop-color:#E3E3E3"/>
			<stop  offset="0.797" style="stop-color:#D1D1D1"/>
			<stop  offset="1" style="stop-color:#BFBFBF"/>
		</radialGradient>
		<path class="st42" d="M2330,504.1c-65.1,133.9-169.5,221.3-251.7,230.1c-44.6-8.2-91.6-28.7-126-52.3c0.9,0.3,3.1,0.3,5.1,0.3
			c72.2,0,186.6-128.3,255.7-288.1c-91.3-68.5-206.5-124.3-315.7-124.3c-55.2,0-82.5,20.5-89,27.6c7.7-29.9,19.1-56,33.6-81.9
			c13.7-24.5,29.6-45.8,43.2-59.7c13.1-10.2,47.8-23.9,99-23.9c107.5,0,203.9,37.8,280.1,90.2c4.6-28.4,7.1-56.6,7.1-84.5
			c0-67.7-20.2-81.6-26.2-85.6c24.5,6.8,46.4,16.2,66.8,27c18.2,9.7,33.3,19.3,52,34.1c6.8,9.4,26.4,34.7,26.4,124
			c0,33.6-2.8,66-7.7,97.3c51.5,66,80.8,136.5,80.8,188c0,11.4-2,22.8-3.1,27.6c-18.2,35.5-42.4,67.7-71.1,95
			c1.1-2.6,2.6-8,2.6-15.9C2392.8,596.8,2368.7,551.3,2330,504.1L2330,504.1z"/>
		<g class="st43">
			
				<linearGradient id="SVGID_4_" gradientUnits="userSpaceOnUse" x1="1393.8269" y1="518.13" x2="1617.3634" y2="413.8933" gradientTransform="matrix(2.8439 0 0 -2.8439 -2119.8748 1683.4871)">
				<stop  offset="0" style="stop-color:#595959"/>
				<stop  offset="5.100000e-02" style="stop-color:#727272"/>
				<stop  offset="0.14" style="stop-color:#989898"/>
				<stop  offset="0.234" style="stop-color:#B7B7B7"/>
				<stop  offset="0.331" style="stop-color:#CFCFCF"/>
				<stop  offset="0.433" style="stop-color:#E0E0E0"/>
				<stop  offset="0.544" style="stop-color:#EAEAEA"/>
				<stop  offset="0.681" style="stop-color:#EDEDED"/>
				<stop  offset="0.762" style="stop-color:#EAEAEA"/>
				<stop  offset="0.821" style="stop-color:#E1E1E1"/>
				<stop  offset="0.872" style="stop-color:#D1D1D1"/>
				<stop  offset="0.919" style="stop-color:#BBBBBB"/>
				<stop  offset="0.962" style="stop-color:#9F9F9F"/>
				<stop  offset="1" style="stop-color:#808080"/>
			</linearGradient>
			<path class="st44" d="M2409.6,624.1c2.6-2.8,3.4-15.9,3.4-17.9c0-116.9-223.2-376-495.7-376c-61.7,0-88.7,21.6-95.6,27.3
				c-1.4,4.6-3.4,9.1-5.1,13.4c6.8-5.1,35.8-27,94.4-27c262.8,0,494.3,257.1,494.3,372.8c0,4.6-0.9,11.4-3.1,15.6
				C2404.8,629.5,2407.3,627,2409.6,624.1L2409.6,624.1z M1856.8,192.4c9.4-8.8,42.7-25,101.5-25c273.6,0,489.1,251.7,489.1,392.7
				c0,3.7-0.9,12.5-4,19.6c2.6-4,5.7-8.8,7.4-11.7c3.7-6.5,4-16.8,4-22.5c0-143.9-213.3-391.3-487.2-391.3
				c-63.4,0-88.7,14.5-99.8,22.5C1865,180.5,1860.2,187.6,1856.8,192.4L1856.8,192.4z M1842.3,216.3c0-0.3-6.8,11.7-8.2,15.6
				c8-6,35.8-25.3,95-25.3c294.3,0,498,268.5,498,382.5c0,5.4-0.9,14.2-3.7,19.1c3.7-4.6,6.8-8.5,8.8-11.4c4.3-6,3.4-18.2,3.4-21.9
				c0-111.5-199.9-382.2-494.5-382.2C1879.5,192.7,1853.1,207.5,1842.3,216.3L1842.3,216.3z"/>
			
				<linearGradient id="SVGID_5_" gradientUnits="userSpaceOnUse" x1="1473.8922" y1="331.1256" x2="1578.3917" y2="555.2259" gradientTransform="matrix(2.8439 0 0 -2.8439 -2119.8748 1683.4871)">
				<stop  offset="0" style="stop-color:#595959"/>
				<stop  offset="4.500000e-02" style="stop-color:#6C6C6C"/>
				<stop  offset="0.157" style="stop-color:#939393"/>
				<stop  offset="0.273" style="stop-color:#B4B4B4"/>
				<stop  offset="0.391" style="stop-color:#CDCDCD"/>
				<stop  offset="0.514" style="stop-color:#DFDFDF"/>
				<stop  offset="0.644" style="stop-color:#EAEAEA"/>
				<stop  offset="0.791" style="stop-color:#EDEDED"/>
				<stop  offset="0.828" style="stop-color:#E9E9E9"/>
				<stop  offset="0.869" style="stop-color:#DBDBDB"/>
				<stop  offset="0.912" style="stop-color:#C5C5C5"/>
				<stop  offset="0.956" style="stop-color:#A6A6A6"/>
				<stop  offset="1" style="stop-color:#808080"/>
			</linearGradient>
			<path class="st45" d="M2284.8,65.6c6.8,7.4,21,39.2,21,87c0,259.6-180,520.4-318.2,550c-4-2-7.4-3.7-11.4-6.3
				c104.7-12.2,317.9-263.6,317.9-548.6c0-44.1-12.2-77.6-22.5-87.3C2275.7,61.9,2280.8,63.9,2284.8,65.6L2284.8,65.6z M2332.8,90.3
				c5.1,4.6,25.3,40.7,25.3,96.7c0,282.7-162.7,507.9-321.4,536.4c5.7,1.7,9.4,3.1,14.8,4.6c168.9-24.2,319.1-271.9,319.1-527.8
				c0-58.9-19.1-95-25.3-101.8C2341.1,95.7,2337.4,93.5,2332.8,90.3L2332.8,90.3z M2301.8,73.3c4.6,4.6,24.2,40.7,24.2,100.1
				c0,267-180,510.5-321.4,537.2c4.6,2,8.2,3.7,12.2,5.1c161-31.3,321.4-284.7,321.4-537.2c0-49.8-16.8-92.1-23.9-99.3
				C2310.1,77.5,2305,75,2301.8,73.3L2301.8,73.3z"/>
		</g>
	</g>
</g>
</svg>
