<?xml version="1.0" encoding="utf-8"?>
<!-- Generator: Adobe Illustrator 21.1.0, SVG Export Plug-In . SVG Version: 6.00 Build 0)  -->
<svg version="1.1" id="Layer_1" xmlns="http://www.w3.org/2000/svg" xmlns:xlink="http://www.w3.org/1999/xlink" x="0px" y="0px"
	 viewBox="0 0 2205.6 772.2" style="enable-background:new 0 0 2205.6 772.2;" xml:space="preserve">
<style type="text/css">
	.st0{fill:url(#SVGID_1_);}
	.st1{fill:url(#SVGID_2_);}
	.st2{fill:url(#SVGID_3_);}
	.st3{fill:url(#SVGID_4_);}
	.st4{fill:url(#SVGID_5_);}
	.st5{fill:url(#SVGID_6_);}
</style>
<g transform="translate(4636.413 -2865.209)">
	
		<linearGradient id="SVGID_1_" gradientUnits="userSpaceOnUse" x1="-15144.001" y1="2713.3562" x2="-15144.001" y2="2829.301" gradientTransform="matrix(4.5091 0 0 4.5091 63960.5195 -9343.9844)">
		<stop  offset="0" style="stop-color:#196EEF"/>
		<stop  offset="0.5" style="stop-color:#186DEE"/>
		<stop  offset="1" style="stop-color:#1065E7"/>
	</linearGradient>
	<path class="st0" d="M-4258.2,3241.5h90.2v126.7c-28.2,9-63.7,14-100.7,14c-149.8,0-237.8-128.2-237.8-253.5
		c0-122.8,79.6-209,190.7-209c70.3,0,111.2,23.8,147.8,57v41.3l68.6-68.6c-43.4-29.4-106.2-57.3-196-57.3
		c-197.2,0-287.3,141.1-287.3,257c0,165,120.2,264.4,271.2,264.4c73.2,0,138.2-11.2,213.3-32.1v-130.9c0-6.7,2.9-11.3,7.3-15.3
		l23.7-23.7H-4228L-4258.2,3241.5L-4258.2,3241.5z"/>
	
		<linearGradient id="SVGID_2_" gradientUnits="userSpaceOnUse" x1="-15041.5762" y1="2752.7766" x2="-15041.5762" y2="2827.7485" gradientTransform="matrix(4.5091 0 0 4.5091 63960.5195 -9343.9844)">
		<stop  offset="0" style="stop-color:#DE5744"/>
		<stop  offset="0.5" style="stop-color:#DB4632"/>
		<stop  offset="1" style="stop-color:#D13D29"/>
	</linearGradient>
	<path class="st1" d="M-3854,3069.3c-113.5,0-183.8,82.9-183.8,170.9c0,76,56.6,166.2,171.4,166.2c110.4,0,178.1-83.1,178.1-172.6
		C-3688.3,3150.3-3754.5,3069.3-3854,3069.3L-3854,3069.3L-3854,3069.3z M-3872.8,3093.5c80,0,115.6,104.2,115.6,178.6
		c0,110.6-82.9,112.8-92.9,112.8c-38,0-64.5-22.9-84.3-53c-17.5-27.7-34.6-79.2-34.6-129.6c0-50.1,16.4-74.6,42.2-92.6
		C-3905.6,3096-3885.8,3093.5-3872.8,3093.5L-3872.8,3093.5z"/>
	
		<linearGradient id="SVGID_3_" gradientUnits="userSpaceOnUse" x1="-14879.6504" y1="2752.7766" x2="-14879.6504" y2="2873.1528" gradientTransform="matrix(4.5091 0 0 4.5091 63960.5195 -9343.9844)">
		<stop  offset="0" style="stop-color:#1A6FEF"/>
		<stop  offset="0.25" style="stop-color:#1E72EF"/>
		<stop  offset="0.5" style="stop-color:#166BEC"/>
		<stop  offset="0.75" style="stop-color:#1267E9"/>
		<stop  offset="1" style="stop-color:#1063E5;stop-opacity:0.87"/>
	</linearGradient>
	<path class="st2" d="M-3112.2,3069.3c-99.1,0-152.7,62.7-152.7,132.8c0,53.3,38.2,113.5,117,113.5h19.9c0,0-5.4,13.2-5.5,25.9
		c0,18.8,6.8,29.4,21.1,45.6c-135.6,8.3-190.2,63-190.2,121.8c0,51.5,49.3,102.2,152.9,102.2c122.7,0,186.2-68.1,186.2-134.9
		c0-47.1-23.5-72.9-82.9-117.5c-17.5-13.6-20.9-22.2-20.9-32.4c0-14.6,8.7-24.2,11.9-27.8c5.6-5.9,15.4-12.7,19-16
		c20-16.9,48.2-42,48.2-91.9c0-34.3-14.3-63.8-46.8-91.4h39.7l29.8-29.8L-3112.2,3069.3L-3112.2,3069.3z M-3139.5,3091.6
		c18,0,33,6.4,48.9,19.6c17.6,15.9,45.7,58.5,45.7,111.2c0,56.9-44.2,72.5-68.1,72.5c-11.7,0-25.7-3.3-37.6-11.4
		c-26.4-17.1-52.6-62.7-52.6-116.9C-3203.3,3117.6-3174.2,3091.6-3139.5,3091.6z M-3100.3,3408.7c7.6,0,13,0.6,13,0.6
		s17.8,12.7,30.3,22.3c29,22.9,47.1,40.5,47.1,71.7c0,42.9-39.8,76.6-104.3,76.6c-70.8,0-124.9-33-124.9-86.8
		C-3239.2,3448.5-3202.1,3410.1-3100.3,3408.7z"/>
	
		<linearGradient id="SVGID_4_" gradientUnits="userSpaceOnUse" x1="-14821.9053" y1="2715.4629" x2="-14821.9053" y2="2825.6418" gradientTransform="matrix(4.5091 0 0 4.5091 63960.5195 -9343.9844)">
		<stop  offset="0" style="stop-color:#0AA561"/>
		<stop  offset="0.5" style="stop-color:#009B58"/>
		<stop  offset="1" style="stop-color:#00914B"/>
	</linearGradient>
	<path class="st3" d="M-2943.8,3396.6h136.1l20.7-20.7l-39-4.9c-10.5-1.3-16.7-10.4-16.7-19.2v-411c0-8.1,3.8-12.2,6.5-14.9
		l24.5-24.5h-116l-30.2,30.2h45.1v425.7c0,6.1-1.9,10.2-6,14.4L-2943.8,3396.6L-2943.8,3396.6z"/>
	
		<linearGradient id="SVGID_5_" gradientUnits="userSpaceOnUse" x1="-14768.6289" y1="2752.7766" x2="-14768.6289" y2="2827.5398" gradientTransform="matrix(4.5091 0 0 4.5091 63960.5195 -9343.9844)">
		<stop  offset="0" style="stop-color:#DE5644"/>
		<stop  offset="0.5" style="stop-color:#DA4531"/>
		<stop  offset="1" style="stop-color:#CE3A28"/>
	</linearGradient>
	<path class="st4" d="M-2623.4,3069.3c-76,0-156.7,57.9-156.7,161.9c0,85.9,57.9,175.3,166.1,175.3c27,0,49.2-3.5,70-13
		c22.3-10.3,43.8-27,59.5-48c-29.6,14.9-53.8,24.7-85.8,24.7c-61,0-119.7-44-140.3-124.8l215.3-87
		C-2507.7,3113.9-2542.8,3069.3-2623.4,3069.3L-2623.4,3069.3L-2623.4,3069.3z M-2637.5,3093.1c40.8,0,70.2,33.5,70.2,59.8
		c0,8.5-5.3,13-15.9,17.1l-132.4,53.5c0,0-3.6-16.7-3.6-34.7C-2719.1,3113.3-2664.4,3093.1-2637.5,3093.1L-2637.5,3093.1z"/>
	
		<linearGradient id="SVGID_6_" gradientUnits="userSpaceOnUse" x1="-14956.1768" y1="2752.9539" x2="-14956.1768" y2="2827.6143" gradientTransform="matrix(4.5091 0 0 4.5091 63960.5195 -9343.9844)">
		<stop  offset="0" style="stop-color:#FFC01A"/>
		<stop  offset="0.5" style="stop-color:#FFBA03"/>
		<stop  offset="1" style="stop-color:#FFB300"/>
	</linearGradient>
	<path class="st5" d="M-3468.9,3069.3c-113.5,0-183.8,82.9-183.8,170.9c0,76,56.6,166.2,171.4,166.2c110.4,0,178.1-83.1,178.1-172.6
		C-3303.2,3150.3-3369.4,3069.3-3468.9,3069.3L-3468.9,3069.3L-3468.9,3069.3z M-3487.8,3093.5c80,0,115.6,104.2,115.6,178.6
		c0,110.6-82.9,112.8-92.9,112.8c-38,0-64.5-22.9-84.3-53c-17.5-27.7-34.6-79.2-34.6-129.6c0-50.1,16.4-74.6,42.2-92.6
		C-3520.5,3096-3500.8,3093.5-3487.8,3093.5L-3487.8,3093.5z"/>
</g>
</svg>
