<svg id="Layer_1" data-name="Layer 1" xmlns="http://www.w3.org/2000/svg" viewBox="0 0 304.49 66.33"><defs><style>.cls-1{fill:#00a7e2;}.cls-2{fill:#a7a9ac;}.cls-3{fill:#4a4d56;}</style></defs><title>Artboard 1</title><path class="cls-1" d="M8.79,15.37v-1.5a2.67,2.67,0,0,1,2.59-2.75h8.78a2.67,2.67,0,0,1,2.59,2.75h0v1.5a2.67,2.67,0,0,1-2.59,2.75H11.35A2.67,2.67,0,0,1,8.79,15.37Z"/><path class="cls-1" d="M27.72,18.09H36.5a2.67,2.67,0,0,0,2.59-2.72v-1.5a2.67,2.67,0,0,0-2.59-2.75H27.72a2.67,2.67,0,0,0-2.59,2.75h0v1.5A2.67,2.67,0,0,0,27.72,18.09Z"/><rect class="cls-1" x="8.76" y="19.97" width="7.87" height="7.87" rx="2.66" ry="2.66"/><path class="cls-1" d="M30.35,20.43H21.57A2.67,2.67,0,0,0,19,23.18h0v1.47a2.67,2.67,0,0,0,2.59,2.72h8.78a2.67,2.67,0,0,0,2.59-2.75h0V23.18a2.67,2.67,0,0,0-2.59-2.75Z"/><path class="cls-2" d="M61.05,20.43H37.89a2.67,2.67,0,0,0-2.59,2.75h0v1.47a2.67,2.67,0,0,0,2.59,2.72H61.05a2.67,2.67,0,0,0,2.59-2.75h0V23.18a2.67,2.67,0,0,0-2.59-2.75Z"/><path class="cls-1" d="M33,32.48a2.67,2.67,0,0,0-2.59-2.75H21.58A2.67,2.67,0,0,0,19,32.48h0V34a2.67,2.67,0,0,0,2.59,2.75h8.78A2.67,2.67,0,0,0,33,34h0Z"/><path class="cls-2" d="M63.64,32.48a2.67,2.67,0,0,0-2.59-2.75H48.12a2.67,2.67,0,0,0-2.59,2.75h0V34a2.67,2.67,0,0,0,2.59,2.75H61.05A2.67,2.67,0,0,0,63.64,34h0Z"/><rect class="cls-1" x="8.76" y="29.28" width="7.87" height="7.87" rx="2.66" ry="2.66"/><rect class="cls-1" x="35.31" y="29.28" width="7.87" height="7.87" rx="2.66" ry="2.66"/><path class="cls-1" d="M20.13,48.37H11.35a2.67,2.67,0,0,0-2.56,2.78h0v1.47a2.67,2.67,0,0,0,2.56,2.75h8.78a2.67,2.67,0,0,0,2.59-2.75h0V51.15a2.67,2.67,0,0,0-2.56-2.78Z"/><path class="cls-1" d="M36.45,48.37H27.66a2.67,2.67,0,0,0-2.59,2.75h0v1.47a2.67,2.67,0,0,0,2.56,2.78h8.81A2.67,2.67,0,0,0,39,52.63h0V51.15a2.67,2.67,0,0,0-2.56-2.78Z"/><path class="cls-1" d="M61.05,48.37H52.27a2.67,2.67,0,0,0-2.59,2.75h0v1.47a2.67,2.67,0,0,0,2.56,2.78h8.81a2.67,2.67,0,0,0,2.59-2.75h0V51.15a2.67,2.67,0,0,0-2.56-2.78Z"/><rect class="cls-1" x="40.4" y="55.37" width="7.87" height="7.87" rx="2.66" ry="2.66"/><path class="cls-1" d="M30.36,39.08H21.58A2.67,2.67,0,0,0,19,41.83h0V43.3a2.67,2.67,0,0,0,2.59,2.75h8.78A2.67,2.67,0,0,0,33,43.31h0V41.83a2.67,2.67,0,0,0-2.59-2.75Z"/><rect class="cls-1" x="8.76" y="38.62" width="7.87" height="7.87" rx="2.66" ry="2.66"/><rect class="cls-1" x="35.31" y="38.62" width="7.87" height="7.87" rx="2.66" ry="2.66"/><rect class="cls-1" x="45.54" y="38.62" width="7.87" height="7.87" rx="2.66" ry="2.66"/><rect class="cls-1" x="55.76" y="38.73" width="7.87" height="7.87" rx="2.66" ry="2.66"/><path class="cls-2" d="M43.87,18.09H61.05a2.67,2.67,0,0,0,2.59-2.72v-1.5a2.67,2.67,0,0,0-2.59-2.75H43.87a2.67,2.67,0,0,0-2.59,2.75h0v1.5A2.67,2.67,0,0,0,43.87,18.09Z"/><path class="cls-3" d="M104.55,30.93,97.79,45.29h-5.2L85.79,31V51.37h-10V15H85.94l9.21,19.57L104.31,15h10.2V51.37h-10Z"/><path class="cls-3" d="M142.91,45.29H130.42l-1.83,6.08H117.72l13.43-36.43h11l13.46,36.43H144.73Zm-10.2-7.76h7.86l-4-13.22Z"/><path class="cls-3" d="M173,38.16h-4.25V51.37h-10V15h17.38c10.57,0,15.35,3.85,15.35,11.61,0,5.88-2.76,9.47-8.64,10.93l8.69,13.88H180.79Zm2.5-15.46h-6.75v7.67h6.71c3.44,0,5.93-.68,5.93-3.85s-2.5-3.81-5.89-3.81Z"/><path class="cls-3" d="M196.16,51.37V15h10V43h16.71v8.42Z"/><path class="cls-3" d="M226.55,51.37V15h27.24v8.42H236.55V29h14v8.22h-14v5.67h17.59v8.44Z"/><path class="cls-3" d="M290.65,47.25c3.5-3.49,5.07-8.52,5.07-14.25,0-10.89-5.66-19.27-19.49-19.27S256.79,22.1,256.79,33s5.66,19.27,19.49,19.27A30,30,0,0,0,280,52l5.72,5.72A5.48,5.48,0,0,0,293.45,50ZM268.44,33c0-5.77,2.19-9.61,7.79-9.61S284,27.22,284,33c0,3.9-1,6.92-3.4,8.47a5.44,5.44,0,0,0-1.38.67,9,9,0,0,1-3,.48C270.63,42.6,268.44,38.76,268.44,33Z"/></svg>