<?xml version="1.0" encoding="utf-8"?>
<!-- Generator: Adobe Illustrator 21.1.0, SVG Export Plug-In . SVG Version: 6.00 Build 0)  -->
<svg version="1.1" id="Layer_1" xmlns="http://www.w3.org/2000/svg" xmlns:xlink="http://www.w3.org/1999/xlink" x="0px" y="0px"
	 viewBox="0 0 2500 779" style="enable-background:new 0 0 2500 779;" xml:space="preserve">
<style type="text/css">
	.st0{fill:#989A9C;}
	.st1{fill:#BF0E88;}
</style>
<path class="st0" d="M0,359.7h110.9v111H0V359.7z M332.8,359.7h110.9v111H332.8L332.8,359.7L332.8,359.7z M665.6,359.7h110.9v111
	H665.6V359.7z"/>
<path class="st1" d="M932.6,538c0,73.7,12.7,85.6,91.9,86.4v30.9H755.1v-30.9c79.3-0.8,91.9-12.7,91.9-86.4v-405
	c-91.1,1.6-144.2,61.8-152.2,172l-29.3-4.7l5.6-193.4h437.5l5.5,193.4l-29.3,4.7c-7.9-110.1-61.8-170.4-152.1-172V538z"/>
<path class="st0" d="M1002.3,359.7h110.9v111h-110.9V359.7z M1332.1,151.9c0-17.6-1-24-5.1-28.1c-3.1-3.1-10.2-5.1-17.9-5.1h-4.4
	v-10.9h80.2c37.2,0,63.3,10.9,83.3,34.9c17.3,20.7,26.4,47.1,26.4,77.5c0,34.9-11.5,65-32.9,85.7c-18.9,18.9-44,27.7-76.9,27.7
	h-80.2v-10.8h4.4c7.8,0,14.9-2,17.9-5.1c4-4.1,5.1-10.5,5.1-28.1V151.9z M1363.3,291.1c0,25.7,4.1,30.5,27.7,30.5
	c48.8,0,67.4-27.8,67.4-101.3c0-71.4-19.3-100.6-66.7-100.6c-12.5,0-20.3,2.4-24.4,6.8c-3.4,4.1-4.1,8.1-4.1,22.4V291.1
	L1363.3,291.1z M1548.4,254.9c0.3,49.4,11.9,70.5,38.6,70.5c18.3,0,30.1-9.8,42-34.9l10.2,5.4c-14.5,29.5-32.2,42.7-57.6,42.7
	c-39.3,0-64.7-32.5-64.7-83.7c0-47.4,25.7-81.6,61.3-81.6c36.9,0,61.3,31.5,63,81.6H1548.4z M1609.7,243
	c0.3-36.2-10.8-57.9-29.8-57.9c-18.9,0-30.8,22.4-31.2,57.9H1609.7L1609.7,243z M1770.1,298.9c-11.5,26.4-27.1,38.3-49.1,38.3
	c-14.9,0-26.4-5.7-32.9-16.6c-6.4-10.8-8.5-21.3-8.5-46.7v-58.2c0-22.4-3.1-27.1-17.3-27.1h-3.7V178l49.4-2.4v107
	c0,14.6,1,21.3,4.1,27.8c2.7,6.8,9.5,11.2,16.9,11.2c11.5,0,22.3-7.5,29.5-21c6.4-11.5,8.8-23.7,8.8-43v-42
	c0-22.4-3.1-27.1-17.3-27.1h-5.1V178l50.8-2.4v120.2c0,22.3,3,27.4,17.3,27.4h3.7v10.5l-46.7,2.4V298.9L1770.1,298.9z M1878.5,283.3
	c0,13.9,0.7,20,2.4,26.4c2.4,8.1,8.8,13.2,16.5,13.2c12.9,0,20.7-13.9,20.7-37.9v-4.7h11.2v6.4c0,33.2-13.6,50.4-40.3,50.4
	c-12.9,0-23.4-4.1-29.4-11.5c-7.4-8.8-9.5-18.6-9.5-42.3v-93.8h-24.4V180c29.5-7.1,39.3-20.7,43.3-60.6h9.5V178h45.7v11.5h-45.7
	L1878.5,283.3L1878.5,283.3z M2040,227.1h-10.2c-5.7-28.8-18.6-42.7-39.6-42.7c-14.6,0-25.4,10.2-25.4,23.7c0,12.9,6.8,19,28.1,25.7
	c21.6,7.1,30.8,11.2,38.3,16.9c12.2,9.5,17.9,21.3,17.9,36.5c0,29.1-21,49.8-50.8,49.8c-13.5,0-21.3-2.7-37.9-12.5
	c-1.1-0.7-2.4-1.2-3.7-1.3c-2.4,0-4.4,2.4-5.8,6.8l-1,3.7h-9.5v-57.2h9.5c4.4,15.9,7.8,24.4,13.2,31.5c8.5,11.5,21.3,18.3,35.2,18.3
	c15.6,0,27.1-11.8,27.1-27.4c0-9.8-5.1-18.6-13.9-24.1c-7.5-4.7-7.8-4.7-29.8-12.2c-27.1-8.8-39.6-23.3-39.6-45.4
	c0-25.1,18.6-42.7,45.7-42.7c10.8,0,22.3,3.4,31.8,9.1c2,1,3.7,1.7,5.1,1.7c2,0,4-2.7,5.1-7.5h10.2V227.1L2040,227.1z M2188.6,294.2
	c-12.2,30.5-29.4,44.4-55.5,44.4c-38.9,0-65.7-33.8-65.7-83.3c0-48.1,28.4-81.9,69.1-81.9c28.1,0,50.1,19.3,50.1,43.7
	c0,12.5-8.1,21.3-19.3,21.3c-9.8,0-17.3-7.8-17.3-18.3c0-9.5,6.8-17.3,15.9-17.3c1.4,0,2,0,3.4,1c-5.1-11.9-16.2-18.6-29.8-18.6
	c-26.1,0-39.3,23.4-39.3,70.1c0,47.7,12.5,70.4,38.3,70.4c16.9,0,29.8-11.5,39.3-35.9L2188.6,294.2L2188.6,294.2z M2310.1,232.9
	c0-19.6-1-27.4-5.1-33.5c-3.7-6.8-9.8-10.2-16.9-10.2c-11.2,0-21.7,7.5-28.1,20.3c-6.1,12.5-8.5,25.7-8.5,49.1v37.3
	c0,22.7,3.1,27.4,17.3,27.4h5.4v10.5h-73.8v-10.5h5.4c14.2,0,17.3-5.1,17.3-27.4V145.5c0-22.3-3-27.1-17.3-27.1h-3.7v-10.5l49.4-2.4
	v100.5c10.8-22,24-31.5,43.7-31.5c14.2,0,25.7,5.1,32.5,14.6c8.4,11.8,10.8,22.7,10.8,52.1v54.5c0,22.7,3.1,27.4,17.3,27.4h3.7v10.5
	h-49.4L2310.1,232.9L2310.1,232.9z M2407.2,254.9c0.4,49.4,11.9,70.5,38.6,70.5c18.3,0,30.1-9.8,42-34.9l10.1,5.4
	c-14.5,29.5-32.2,42.7-57.6,42.7c-39.3,0-64.7-32.5-64.7-83.7c0-47.4,25.7-81.6,61.3-81.6c36.9,0,61.3,31.5,63,81.6H2407.2z
	 M2468.5,243c0.3-36.2-10.8-57.9-29.8-57.9s-30.8,22.4-31.1,57.9H2468.5z M1401.8,612c0,17.9,1,24.1,5.1,28.1
	c3.4,3.1,10.2,5.1,17.9,5.1h7.8V656h-92.8v-10.8h7.8c7.8,0,14.5-2,18-5.1c4-4,5.1-10.2,5.1-28.1V441h-7.1c-20,0-36.2,10.8-44,29.5
	c-4.4,10.2-6.4,20.3-8.1,38.6l-9.8-0.7l1.7-78.2h166.9l1.3,78.2l-10.1,0.7c-6.4-49.4-21.7-68.1-54.5-68.1h-5.1L1401.8,612
	L1401.8,612L1401.8,612z M1518.9,577.2c0.3,49.4,11.9,70.4,38.6,70.4c18.3,0,30.1-9.8,42-34.8l10.2,5.4
	c-14.6,29.5-32.2,42.7-57.6,42.7c-39.3,0-64.7-32.5-64.7-83.6c0-47.4,25.7-81.6,61.3-81.6c36.9,0,61.3,31.5,63,81.6L1518.9,577.2
	L1518.9,577.2z M1580.2,565.3c0.3-36.2-10.9-57.9-29.8-57.9c-18.9,0-30.8,22.4-31.1,57.9H1580.2L1580.2,565.3z M1679.4,618.1
	c0,22.7,3.1,27.4,17.3,27.4h5.4V656h-73.8v-10.5h5.4c14.2,0,17.3-4.7,17.3-27.4V467.8c0-22.3-3.1-27.1-17.3-27.1h-3.7v-10.5
	l49.4-2.4V618.1L1679.4,618.1z M1749.4,577.2c0.3,49.4,11.9,70.4,38.6,70.4c18.3,0,30.2-9.8,42-34.8l10.2,5.4
	c-14.6,29.5-32.2,42.7-57.6,42.7c-39.3,0-64.6-32.5-64.6-83.6c0-47.4,25.7-81.6,61.3-81.6c36.9,0,61.3,31.5,63,81.6L1749.4,577.2
	L1749.4,577.2z M1810.7,565.3c0.3-36.2-10.8-57.9-29.8-57.9c-18.9,0-30.8,22.4-31.1,57.9H1810.7z M1972.2,656l-48.7-78.5l-13.5,11.9
	v28.8c0,22.7,3,27.4,17.3,27.4h6.4V656h-74.8v-10.5h5.4c14.2,0,17.3-5.1,17.3-27.4V467.8c0-22.3-3-27.1-17.3-27.1h-3.7v-10.5
	l49.4-2.4v145.3l45.7-39.3c6.1-5.4,9.8-11.2,9.8-15.6c0-5.1-4.4-7.5-14.6-7.5h-5.1v-10.5h66.7v10.5h-3.4c-9.8,0-14.2,2.4-28.1,14.9
	l-37.2,33.2l40.9,65.4c10.2,16.3,16.6,21.3,27.5,21.3h2.7V656L1972.2,656L1972.2,656z M2166.5,578.1c0,49.4-27.4,82.6-68.8,82.6
	c-40.9,0-68.4-33.2-68.4-82.3c0-50.5,27.4-82.9,69.4-82.9C2139.1,495.6,2166.5,529.1,2166.5,578.1L2166.5,578.1z M2070,526.7
	c-5.4,12.2-7.8,28.1-7.8,50.8c0,48.8,11.5,72.5,35.5,72.5c24,0,35.9-23.7,35.9-71.8c0-23.3-2.4-39.6-7.8-51.5
	c-5.8-12.9-16.3-20.3-28.4-20.3C2086.2,506.4,2075.4,514.5,2070,526.7L2070,526.7z M2367.2,560.9c0-21.7-1.4-32.9-4.4-39
	c-3.7-6.8-9.8-10.5-17.3-10.5c-9.5,0-18,6.1-23.7,16.9c-5.8,10.8-7.1,19.3-7.1,47.4v42.3c0,22.7,3.1,27.4,17.3,27.4h4.8V656h-50.5
	v-90c0-28.8-0.7-35.6-4.7-43.3c-3.7-7.1-9.8-11.2-17.6-11.2c-9.5,0-17.9,6.1-23.4,16.9c-5.4,11.2-6.8,21-6.8,47.4v42.3
	c0,23.1,2.7,27.4,17.3,27.4h4.7V656h-73.1v-10.5h5.4c13.9,0,17.3-5.4,17.3-27.4v-80.2c0-21.7-3.4-27.1-17.3-27.1h-3.7v-10.5
	l47.4-2.4v27.8c6.4-17.3,22.4-28.8,39.6-28.8c19,0,31.1,9.5,39.6,30.8c9.8-21,23.4-30.8,42-30.8c14.5,0,27.4,6.7,34.2,17.9
	c6.4,9.8,8.5,21,8.5,42.3v60.9c0,22.4,3.1,27.4,17.3,27.4h3.7v10.5h-49.4L2367.2,560.9L2367.2,560.9L2367.2,560.9z"/>
</svg>
