<svg id="Layer_1" data-name="Layer 1" xmlns="http://www.w3.org/2000/svg" viewBox="0 0 302.49 60.3"><defs><style>.cls-1{fill:#fff;}.cls-2{fill:#a7a9ac;}</style></defs><title>Artboard 1</title><path class="cls-1" d="M7.76,12.39V10.92a2.67,2.67,0,0,1,2.59-2.75h8.8a2.67,2.67,0,0,1,2.59,2.75h0v1.47a2.67,2.67,0,0,1-2.59,2.75h-8.8a2.67,2.67,0,0,1-2.59-2.75Z"/><path class="cls-1" d="M26.72,15.14H35.5a2.67,2.67,0,0,0,2.59-2.75h0V10.92a2.67,2.67,0,0,0-2.59-2.75H26.72a2.67,2.67,0,0,0-2.57,2.75v1.47A2.67,2.67,0,0,0,26.72,15.14Z"/><rect class="cls-1" x="7.76" y="17.03" width="7.87" height="7.87" rx="2.66" ry="2.66"/><path class="cls-1" d="M29.35,17.48H20.56A2.67,2.67,0,0,0,18,20.22h0V21.7a2.67,2.67,0,0,0,2.59,2.75h8.79a2.67,2.67,0,0,0,2.59-2.75h0V20.23a2.67,2.67,0,0,0-2.59-2.75Z"/><path class="cls-2" d="M60.05,17.48H36.89a2.67,2.67,0,0,0-2.59,2.75h0V21.7a2.67,2.67,0,0,0,2.59,2.75H60.05a2.67,2.67,0,0,0,2.59-2.75h0V20.23a2.67,2.67,0,0,0-2.59-2.75Z"/><path class="cls-1" d="M31.94,29.54a2.67,2.67,0,0,0-2.59-2.75H20.58A2.67,2.67,0,0,0,18,29.53h0V31a2.67,2.67,0,0,0,2.59,2.75h8.78A2.67,2.67,0,0,0,32,31h0Z"/><path class="cls-2" d="M62.63,29.54A2.67,2.67,0,0,0,60,26.79H47.15a2.67,2.67,0,0,0-2.59,2.75h0V31a2.67,2.67,0,0,0,2.59,2.75h12.9A2.67,2.67,0,0,0,62.64,31h0Z"/><rect class="cls-1" x="7.76" y="26.34" width="7.87" height="7.87" rx="2.66" ry="2.66"/><rect class="cls-1" x="34.3" y="26.34" width="7.87" height="7.87" rx="2.66" ry="2.66"/><path class="cls-1" d="M19.15,45.46h-8.8A2.67,2.67,0,0,0,7.76,48.2h0v1.47a2.67,2.67,0,0,0,2.59,2.75h8.8a2.67,2.67,0,0,0,2.59-2.75h0V48.21a2.67,2.67,0,0,0-2.59-2.75Z"/><path class="cls-1" d="M35.44,45.46H26.66a2.67,2.67,0,0,0-2.59,2.75h0v1.47a2.67,2.67,0,0,0,2.59,2.75h8.78A2.67,2.67,0,0,0,38,49.68h0V48.21a2.67,2.67,0,0,0-2.59-2.75Z"/><path class="cls-1" d="M60.05,45.46H51.26a2.67,2.67,0,0,0-2.59,2.75h0v1.47a2.67,2.67,0,0,0,2.59,2.75h8.79a2.67,2.67,0,0,0,2.59-2.75h0V48.21a2.67,2.67,0,0,0-2.59-2.75Z"/><rect class="cls-1" x="39.4" y="52.43" width="7.87" height="7.87" rx="2.66" ry="2.66"/><path class="cls-1" d="M29.36,36.13H20.58A2.67,2.67,0,0,0,18,38.87h0v1.44a2.67,2.67,0,0,0,2.59,2.75h8.78a2.67,2.67,0,0,0,2.58-2.75V38.88A2.67,2.67,0,0,0,29.36,36.13Z"/><rect class="cls-1" x="7.76" y="35.68" width="7.87" height="7.87" rx="2.66" ry="2.66"/><rect class="cls-1" x="34.3" y="35.68" width="7.87" height="7.87" rx="2.66" ry="2.66"/><rect class="cls-1" x="44.53" y="35.68" width="7.87" height="7.87" rx="2.66" ry="2.66"/><rect class="cls-1" x="54.76" y="35.78" width="7.87" height="7.87" rx="2.66" ry="2.66"/><path class="cls-2" d="M42.87,15.14H60.05a2.67,2.67,0,0,0,2.59-2.75h0V10.92a2.67,2.67,0,0,0-2.59-2.75H42.87a2.67,2.67,0,0,0-2.59,2.75h0v1.47a2.67,2.67,0,0,0,2.59,2.75Z"/><path class="cls-1" d="M103.54,28,96.78,42.32h-5.2L84.81,28v20.4h-10V12H85l9.19,19.57L103.31,12h10.2V48.44h-10Z"/><path class="cls-1" d="M141.9,42.32H129.41l-1.82,6.09H116.71L130.15,12h11l13.43,36.43H143.73Zm-10.2-7.76h7.86l-4-13.22Z"/><path class="cls-1" d="M172,35.22h-4.27V48.44h-10V12h17.38c10.57,0,15.35,3.85,15.35,11.61,0,5.88-2.76,9.47-8.64,10.93l8.69,13.9H179.74Zm2.5-15.46h-6.77v7.7h6.71c3.44,0,5.93-.68,5.93-3.85S177.92,19.76,174.54,19.76Z"/><path class="cls-1" d="M195.15,48.44V12h10V40h16.7v8.43Z"/><path class="cls-1" d="M225.55,48.44V12h27.27v8.43H235.54v5.67h14v8.21h-14V40h17.61v8.43Z"/><path class="cls-1" d="M289.65,44.32c3.5-3.49,5.07-8.52,5.07-14.25,0-10.89-5.66-19.27-19.49-19.27S255.75,19.16,255.75,30s5.66,19.27,19.48,19.27a30,30,0,0,0,3.7-.22l5.72,5.72a5.48,5.48,0,0,0,7.75-7.75ZM267.44,30c0-5.77,2.19-9.61,7.79-9.61S283,24.28,283,30c0,3.9-1,6.92-3.4,8.47a5.44,5.44,0,0,0-1.38.67,9,9,0,0,1-3,.48C269.63,39.66,267.44,35.81,267.44,30Z"/></svg>