<?xml version="1.0" encoding="utf-8"?>
<!-- Generator: Adobe Illustrator 21.1.0, SVG Export Plug-In . SVG Version: 6.00 Build 0)  -->
<svg version="1.1" id="Layer_1" xmlns="http://www.w3.org/2000/svg" xmlns:xlink="http://www.w3.org/1999/xlink" x="0px" y="0px"
	 viewBox="0 0 299 299" style="enable-background:new 0 0 299 299;" xml:space="preserve">
<style type="text/css">
	.st0{fill:#FFFFFF;}
</style>
<g>
	<path class="st0" d="M169.6,176.9c-2.1,0-4.2-1.1-5.5-3c-1.9-3-1.1-7,2-9l69.7-44.7c3-1.9,7-1.1,9,2c1.9,3,1.1,7-2,9l-69.7,44.7
		C172,176.5,170.8,176.9,169.6,176.9z"/>
	<path class="st0" d="M169.6,188.1c-9.7,0-17.7-7.9-17.7-17.7c0-9.7,7.9-17.7,17.7-17.7s17.7,7.9,17.7,17.7
		C187.3,180.1,179.3,188.1,169.6,188.1z M169.6,165.7c-2.6,0-4.7,2.1-4.7,4.7s2.1,4.7,4.7,4.7s4.7-2.1,4.7-4.7
		S172.2,165.7,169.6,165.7z"/>
	<path class="st0" d="M169.6,55.9c-3.6,0-6.5-2.9-6.5-6.5V13.3c0-3.6,2.9-6.5,6.5-6.5s6.5,2.9,6.5,6.5v36.1
		C176.1,53,173.2,55.9,169.6,55.9z"/>
	<path class="st0" d="M194.4,19.8h-49.6c-3.6,0-6.5-2.9-6.5-6.5s2.9-6.5,6.5-6.5h49.6c3.6,0,6.5,2.9,6.5,6.5S198,19.8,194.4,19.8z"
		/>
	<g>
		<path class="st0" d="M91.9,81.8c-1.7,0-3.3-0.6-4.6-1.9L61.8,54.4c-2.5-2.5-2.5-6.7,0-9.2c2.5-2.5,6.7-2.5,9.2,0l25.5,25.5
			c2.5,2.5,2.5,6.7,0,9.2C95.2,81.2,93.6,81.8,91.9,81.8z"/>
		<path class="st0" d="M48.9,73.8c-1.7,0-3.3-0.6-4.6-1.9c-2.5-2.5-2.5-6.7,0-9.2l35.1-35.1c2.5-2.5,6.7-2.5,9.2,0
			c2.5,2.5,2.5,6.7,0,9.2L53.5,71.9C52.2,73.2,50.5,73.8,48.9,73.8z"/>
	</g>
	<g>
		<path class="st0" d="M247.8,81.8c-1.7,0-3.3-0.6-4.6-1.9c-2.5-2.5-2.5-6.7,0-9.2l25.5-25.5c2.5-2.5,6.7-2.5,9.2,0
			c2.5,2.5,2.5,6.7,0,9.2l-25.5,25.5C251.1,81.2,249.4,81.8,247.8,81.8z"/>
		<path class="st0" d="M290.8,73.8c-1.7,0-3.3-0.6-4.6-1.9l-35.1-35.1c-2.5-2.5-2.5-6.7,0-9.2c2.5-2.5,6.7-2.5,9.2,0l35.1,35.1
			c2.5,2.5,2.5,6.7,0,9.2C294.1,73.2,292.5,73.8,290.8,73.8z"/>
	</g>
	<path class="st0" d="M10.1,155.3c-5,0-9-4-9-9c0-5,4-9,9-9h105.4c5,0,9,4,9,9c0,5-4,9-9,9H10.1z"/>
	<path class="st0" d="M36.4,203.6c-5,0-9-4-9-9s4-9,9-9h73.8c5,0,9,4,9,9s-4,9-9,9H36.4z"/>
	<g>
		<path class="st0" d="M61.5,183.1c-0.5-4.2-0.8-8.4-0.8-12.8c0-4.3,0.3-8.5,0.7-12.6H48.4c-0.4,4.1-0.6,8.3-0.6,12.6
			c0,4.3,0.2,8.6,0.7,12.8H61.5z"/>
		<path class="st0" d="M62.3,188.1H49.1c0.6,4.4,1.5,8.8,2.6,13h13.5C64,196.9,63,192.6,62.3,188.1z"/>
		<path class="st0" d="M79.6,231.5H64.3c-4.6-7.9-8.4-16.4-11.1-25.3h13.7C70,215.2,74.3,223.7,79.6,231.5z"/>
		<path class="st0" d="M95,249.5H77c-3.5-4.1-6.8-8.5-9.7-13h15.9C86.8,241.1,90.7,245.5,95,249.5z"/>
		<path class="st0" d="M291.4,170.4c0,67.2-54.6,121.8-121.8,121.8c-34.6,0-65.8-14.5-88-37.7h19.1c18.8,15.4,42.8,24.7,68.9,24.7
			c60,0,108.8-48.8,108.8-108.8c0-60-48.8-108.8-108.8-108.8c-47.5,0-88,30.6-102.8,73.2H53.1c15.3-49.9,61.7-86.2,116.5-86.2
			C236.8,48.6,291.4,103.2,291.4,170.4z"/>
	</g>
	<path class="st0" d="M58.6,252c-5,0-9-4-9-9s4-9,9-9h76.5c5,0,9,4,9,9s-4,9-9,9H58.6z"/>
</g>
</svg>
