<?xml version="1.0" encoding="utf-8"?>
<!-- Generator: Adobe Illustrator 21.1.0, SVG Export Plug-In . SVG Version: 6.00 Build 0)  -->
<svg version="1.1" id="Layer_1" xmlns="http://www.w3.org/2000/svg" xmlns:xlink="http://www.w3.org/1999/xlink" x="0px" y="0px"
	 viewBox="0 0 2500 779" style="enable-background:new 0 0 2500 779;" xml:space="preserve">
<style type="text/css">
	.st0{fill:#2D509F;}
</style>
<path class="st0" d="M1523.6,207.1h-300.5v98h100.5v209.7h98V305.1h102.1L1523.6,207.1L1523.6,207.1z M1817.3,514l-94.7-306.9
	h-119.3L1508.6,514h98l56.3-218.2l56.4,218.2L1817.3,514L1817.3,514z M2117.3,207.1h-300.5v98h100.5v209.7h98V305.1h102.1V207.1z
	 M2407.7,514L2313,207.1h-119.2L2099,514h98l56.3-218.2l56.3,218.2L2407.7,514L2407.7,514z M492.3,536.2
	c21.3-90.7,37.2-179.2,37.2-179.2s8-29.2-8-49.1c-15.9-19.9-65-13.3-65-13.3s-76.3,0.9-154,10.3c-69.2,8.4-139.9,22.1-165.9,27.4
	c-5.4,18.6-8.2,37.9-8.3,57.3c0,136.6,136.5,252.6,326.1,294C464.4,647.3,479.3,591.4,492.3,536.2L492.3,536.2z"/>
<path class="st0" d="M633.2,479.1c-0.9-109.9,2.2-212.4,2.2-212.4s-3.5-15.4,6.3-23c10.1-7.7,33.5-7.5,33.5-7.5s90.9,2.6,192.7,15.6
	c74.3,9.6,154.7,24.9,191,32.1C992.2,164.5,815.4,79.2,607.9,79.2c-208.4,0-385.7,86-451.8,206.2c31.8-6.4,118.3-23.3,198-33.5
	c101.8-13.1,192.7-15.6,192.7-15.6s23.4-0.2,33.5,7.5c9.8,7.5,6.3,23,6.3,23s3.1,102.5,2.2,212.4c-0.7,84.2-3.3,172.6-4.9,220.3
	c8,0.3,15.9,0.4,24,0.4c10.2,0,20.2-0.3,30.3-0.7C636.5,651.3,634,563.2,633.2,479.1L633.2,479.1z"/>
<path class="st0" d="M919.5,304.9c-77.7-9.4-154-10.3-154-10.3s-49.1-6.6-65,13.3c-15.9,19.9-7.9,49.1-7.9,49.1
	s15.8,88.5,37.2,179.2c12.9,54.6,27.6,109.8,37.6,146c186.5-42.5,320.2-157.5,320.2-292.7c0-20.1-3-39.6-8.7-58.6
	C1048.7,324.9,983.5,312.6,919.5,304.9L919.5,304.9z"/>
</svg>
