<?xml version="1.0" encoding="utf-8"?>
<!-- Generator: Adobe Illustrator 21.1.0, SVG Export Plug-In . SVG Version: 6.00 Build 0)  -->
<svg version="1.1" id="Layer_1" xmlns="http://www.w3.org/2000/svg" xmlns:xlink="http://www.w3.org/1999/xlink" x="0px" y="0px"
	 viewBox="0 0 2500 779" style="enable-background:new 0 0 2500 779;" xml:space="preserve">
<style type="text/css">
	.st0{fill:#F48F00;}
	.st1{fill:#007FAF;}
	.st2{fill:#C94A38;}
</style>
<path class="st0" d="M826.2,171.5h132.3l100.4,271.9h2.4l95.5-271.9h124.9l-156.8,401.7H995.2"/>
<path class="st1" d="M343.6,271.9H221.1v134.7c0,22,2.4,51.4,24.5,66.1c22,9.8,46.5,12.2,71,7.3c9.8,0,19.6-4.9,26.9-9.8v102.9
	c-14.7,4.9-31.8,7.3-46.5,9.8c-88.2,9.8-208.2-7.3-208.2-117.6V274.4H0.7V171.5h85.7V53.9h134.7v117.6h122.5V271.9z M689,171.5
	h122.5v401.7H689L689,171.5L689,171.5z M684.1,66.1C681.7,31.8,711.1,0,747.8,0S814,26.9,814,63.7v2.4c0,36.7-31.8,66.1-66.1,63.7
	C713.5,129.8,684.1,102.9,684.1,66.1"/>
<path class="st2" d="M2207.8,372.4c0,53.9,31.8,100.4,88.2,100.4c56.3,0,88.2-46.5,88.2-100.4s-31.8-100.4-88.2-100.4
	C2239.7,271.9,2207.8,318.5,2207.8,372.4 M2097.6,372.4c-4.9-110.2,80.8-205.8,191.1-210.7c66.1-2.4,127.4,26.9,169,78.4
	c49,71,56.3,161.7,17.1,240.1c-53.9,98-176.4,132.3-274.4,78.4C2134.3,521.8,2092.7,450.7,2097.6,372.4 M1965.3,171.5v53.9h-2.4
	c-2.4-4.9-7.3-9.8-12.2-14.7c-80.8-68.6-215.6-53.9-267,41.6c-24.5,51.4-31.8,110.2-22,166.6c7.3,51.4,26.9,105.3,71,134.7
	c51.4,31.8,112.7,39.2,169,17.1c19.6-7.3,36.7-22,51.4-39.2h2.4v39.2c2.4,26.9-7.3,51.4-24.5,71c-34.3,36.7-102.9,34.3-149.4,22
	c-24.5-7.3-49-17.1-71-31.8l-61.2,88.2c29.4,22,61.2,36.7,95.5,46.5c88.2,22,208.2,22,276.8-46.5c39.2-39.2,53.9-98,53.9-173.9
	V171.5H1965.3z M1935.9,448.3c-34.3,36.7-90.6,39.2-127.4,4.9l-4.9-4.9c-31.8-44.1-31.8-102.9,0-147c34.3-36.7,90.6-39.2,127.4-4.9
	l4.9,4.9C1967.8,343,1967.8,404.2,1935.9,448.3C1918.8,465.4,1950.6,428.7,1935.9,448.3z"/>
<path class="st1" d="M375.5,171.5h124.9v66.1h2.4c9.8-22,26.9-41.6,46.5-56.3c34.3-17.1,73.5-24.5,110.2-14.7v112.7
	c-24.5-7.3-78.4-17.1-115.1,4.9c-24.5,14.7-41.6,31.8-41.6,120v166.6H377.9L375.5,171.5z"/>
<path class="st0" d="M1397,414c-24.5,14.7-41.6,44.1-19.6,68.6c22,22,61.2,19.6,88.2,9.8c31.8-7.3,53.9-36.7,53.9-68.6v-24.5
	C1521.9,399.3,1428.8,394.4,1397,414z M1521.9,524.2c-14.7,19.6-34.3,36.7-56.3,46.5c-88.2,36.7-213.1,0-215.6-110.2
	c0-115.1,124.9-137.2,215.6-139.6h56.3c0-19.6-7.3-39.2-24.5-51.4c-32-24.3-75.3-27.1-110.2-7.3c-17.1,9.8-31.8,19.6-44.1,34.3
	l-68.6-68.6c22-22,51.4-36.7,80.8-49c56.3-19.6,115.1-22,171.5-7.3c51.4,14.7,88.2,56.3,98,107.8c4.9,29.4,7.3,58.8,7.3,88.2v203.3
	h-112.7L1521.9,524.2z"/>
</svg>
