<?xml version="1.0" encoding="utf-8"?>
<!-- Generator: Adobe Illustrator 21.1.0, SVG Export Plug-In . SVG Version: 6.00 Build 0)  -->
<svg version="1.1" id="Layer_1" xmlns="http://www.w3.org/2000/svg" xmlns:xlink="http://www.w3.org/1999/xlink" x="0px" y="0px"
	 viewBox="0 0 299 299" style="enable-background:new 0 0 299 299;" xml:space="preserve">
<style type="text/css">
	.st0{fill:#FFFFFF;}
</style>
<g>
	<g>
		<path class="st0" d="M161.7,70.9c-2.5,0-4.4-0.5-5.8-0.9c-1.5-0.4-2.8-0.8-5.6-0.8c-2.3,0-3.6,0.3-5.2,0.7c-1.9,0.4-4.2,1-7.7,1
			c-10.9,0-18.4-6.9-19.6-18l-3.7-29.5V23c0-10.3,8.8-18.7,19.7-18.7h31.6c10.9,0,19.7,8.4,19.7,18.7v0.4l-3.8,29.8
			C179.7,63.8,171.8,70.9,161.7,70.9z M150.3,56.2c4.6,0,7.2,0.7,9.1,1.3c1.2,0.3,1.6,0.4,2.3,0.4c4.9,0,6.4-4.1,6.8-6.6l3.6-28.6
			c-0.2-3-3.1-5.4-6.7-5.4h-31.6c-3.6,0-6.5,2.4-6.7,5.4l3.7,28.9c0.4,4.4,2.4,6.3,6.6,6.3c2,0,3.1-0.3,4.6-0.6
			C144,56.8,146.4,56.2,150.3,56.2z"/>
		<path class="st0" d="M149.2,294.7c-4.5,0-7.5-3.2-9.9-5.8l-0.2-0.2l-13.3-15.9L105,248c-6.3-7-3.2-17.6-1.8-22.7
			c0.1-0.4,0.2-0.8,0.3-1.1l2.2-13.1l11-65.6l0.9-5.6l3.5-20.7l6.3-37.7l1.3-1.4c4.7-5.1,15-5.8,20.7-5.8c0,0,0,0,0,0
			c5.7,0,16,0.8,20.7,5.8l1.3,1.4l6.4,38.3l6.4,37.9l2.8,17l6.5,39l2.3,13c0.3,1.1,0.6,2.4,0.9,3.6l1.2,5l-0.6,0.3l0.1,0.6v0.4
			c0,4.6-1.3,8.3-3.8,11.1l-34.4,40.9C156.7,291.4,153.7,294.7,149.2,294.7z M149,280.1c0.1,0.1,0.1,0.2,0.2,0.2
			c0.1-0.1,0.1-0.2,0.2-0.2l34.5-41c0.1-0.1,0.4-0.7,0.4-2l-0.8-6c-0.1-0.4-0.2-0.8-0.3-1.2l-0.1-0.6l-2.4-13.4l-6.5-39.1l-3.8-22.8
			l-9.1-54l-1.9-11.7c-4.5-1.6-15.4-1.6-19.9,0l-9,53.6l-0.9,5.5l-11,65.6l-2.3,13.6c-0.1,0.5-0.3,1.2-0.5,2c-2.3,8-1.5,9.9-1,10.4
			l0.2,0.2l20.9,24.8L149,280.1z M138.1,89.2L138.1,89.2L138.1,89.2z M160.7,89.2L160.7,89.2L160.7,89.2z"/>
	</g>
	<path class="st0" d="M198.4,264.8c-2.5,0-4.9-1.4-5.9-3.8c-1.5-3.3,0-7.1,3.3-8.6c40.4-18.1,66.6-58.5,66.6-102.9
		c0-44.5-26.3-85-67-103.2c-3.3-1.5-4.8-5.3-3.3-8.6c1.5-3.3,5.3-4.8,8.6-3.3c45.4,20.2,74.8,65.4,74.8,115
		c0,49.5-29.1,94.5-74.2,114.7C200.2,264.6,199.3,264.8,198.4,264.8z"/>
	<path class="st0" d="M100.6,264.8c-0.9,0-1.8-0.2-2.7-0.6C52.8,244,23.7,199,23.7,149.5c0-49.7,29.3-94.8,74.8-115
		c3.3-1.5,7.1,0,8.6,3.3c1.5,3.3,0,7.1-3.3,8.6c-40.7,18.1-67,58.6-67,103.2c0,44.4,26.1,84.7,66.6,102.9c3.3,1.5,4.7,5.3,3.3,8.6
		C105.5,263.4,103.1,264.8,100.6,264.8z"/>
</g>
</svg>
